<svg width="18" height="17" viewBox="0 0 18 17" fill="none" xmlns="http://www.w3.org/2000/svg">
<path d="M5.45841 14.875H12.5417C13.3242 14.875 13.9584 14.2407 13.9584 13.4583V6.6684C13.9584 6.48054 13.8838 6.30037 13.7509 6.16753L9.91588 2.33247C9.78304 2.19963 9.60288 2.125 9.41501 2.125H5.45841C4.67601 2.125 4.04175 2.75926 4.04175 3.54167V13.4583C4.04175 14.2407 4.67601 14.875 5.45841 14.875Z" fill="#F7CD29" stroke="#F7CD29" stroke-width="1.0625" stroke-linecap="round" stroke-linejoin="round"/>
<path d="M5.69824 10.3555C5.69824 11.1632 6.35303 11.818 7.16076 11.818H10.4514C11.4611 11.818 12.2796 10.9995 12.2796 9.98987C12.2796 8.98022 11.4611 8.16173 10.4514 8.16173C10.4392 8.16173 10.4271 8.16185 10.4149 8.16209C10.2457 7.32746 9.50783 6.69922 8.62327 6.69922C7.61361 6.69922 6.79513 7.51771 6.79513 8.52736C6.79513 8.66514 6.81037 8.79937 6.83926 8.92844C6.1862 9.07493 5.69824 9.65823 5.69824 10.3555Z" fill="white" stroke="#EAAD06" stroke-width="1.0625" stroke-linecap="round" stroke-linejoin="round"/>
</svg>
