<svg width="192" height="99" viewBox="0 0 192 99" fill="none" xmlns="http://www.w3.org/2000/svg">
<g clip-path="url(#clip0_0_18)">
<path d="M0 91.3682H4.09536C4.21632 93.4303 5.4912 95.0681 8.67456 95.0681C11.3741 95.0681 12.8602 93.9161 12.8602 92.0057C12.8602 90.2777 11.6774 89.5193 9.55392 89.093L6.6432 88.517C3.18528 87.8508 0.576 86.2418 0.576 82.6629C0.576 78.75 3.69984 76.5977 8.5536 76.5977C13.4074 76.5977 16.5005 78.8114 16.5005 82.9068H12.4051C12.4051 80.9657 10.8883 79.9346 8.46144 79.9346C5.76192 79.9346 4.7616 81.2095 4.7616 82.6649C4.7616 83.8476 5.48928 84.8786 7.6128 85.3337L10.343 85.8789C15.0739 86.8197 17.0765 88.6687 17.0765 91.9749C17.0765 96.3429 13.4976 98.405 8.64384 98.405C3.21408 98.405 0 95.7977 0 91.3682Z" fill="#F7CD29"/>
<path d="M19.8974 76.8691H28.2379C33.6965 76.8691 36.1848 79.6896 36.1848 83.8157C36.1848 87.9418 33.6984 90.7315 28.2379 90.7315H23.8699V98.1024H19.8955V76.8711L19.8974 76.8691ZM32.0913 83.8157C32.0913 81.6615 30.8184 80.3578 28.0881 80.3578H23.8718V87.2429H28.0881C30.8184 87.2429 32.0913 85.9392 32.0913 83.8157Z" fill="#F7CD29"/>
<path d="M42.6761 76.8691H47.7717L55.5669 98.1005H51.3506L49.8338 93.7632H40.5833L39.0665 98.1005H34.8809L42.6761 76.8691ZM48.8028 90.7911L45.3449 80.9645H45.1029L41.645 90.7911H48.8028Z" fill="#F7CD29"/>
<path d="M57.752 76.8691H66.0924C71.551 76.8691 74.0393 79.6896 74.0393 83.8157C74.0393 86.88 72.6435 89.2455 69.6118 90.2151L74.2217 98.1005H70.2492L66.0329 90.7296H61.7263V98.1005H57.7539V76.8691H57.752ZM69.9459 83.8157C69.9459 81.6615 68.6729 80.3578 65.9427 80.3578H61.7263V87.2429H65.9427C68.6729 87.2429 69.9459 85.9392 69.9459 83.8157Z" fill="#F7CD29"/>
<path d="M76.7383 76.8691H90.9636V80.3578H80.7127V85.7568H90.0554V88.8807H80.7127V94.6138H91.2669V98.1024H76.7383V76.8711V76.8691Z" fill="#F7CD29"/>
<path d="M100.275 91.3682H104.371C104.492 93.4303 105.767 95.0681 108.95 95.0681C111.649 95.0681 113.136 93.9161 113.136 92.0057C113.136 90.2777 111.953 89.5193 109.829 89.093L106.919 88.517C103.461 87.8508 100.853 86.2418 100.853 82.6629C100.853 78.75 103.977 76.5977 108.831 76.5977C113.685 76.5977 116.778 78.8114 116.778 82.9068H112.682C112.682 80.9657 111.166 79.9346 108.739 79.9346C106.039 79.9346 105.039 81.2095 105.039 82.6649C105.039 83.8476 105.767 84.8786 107.89 85.3337L110.62 85.8789C115.351 86.8197 117.354 88.6687 117.354 91.9749C117.354 96.3429 113.775 98.405 108.921 98.405C103.491 98.405 100.277 95.7977 100.277 91.3682H100.275Z" fill="#F7CD29"/>
<path d="M120.175 76.8691H128.515C133.974 76.8691 136.462 79.6896 136.462 83.8157C136.462 87.9418 133.976 90.7315 128.515 90.7315H124.147V98.1024H120.175V76.8711V76.8691ZM132.367 83.8157C132.367 81.6615 131.094 80.3578 128.364 80.3578H124.147V87.2429H128.364C131.094 87.2429 132.367 85.9392 132.367 83.8157Z" fill="#F7CD29"/>
<path d="M142.953 76.8691H148.049L155.844 98.1005H151.628L150.111 93.7632H140.861L139.344 98.1005H135.158L142.953 76.8691ZM149.08 90.7911L145.622 80.9645H145.38L141.922 90.7911H149.08Z" fill="#F7CD29"/>
<path d="M156.361 87.486C156.361 80.5701 160.244 76.5977 166.249 76.5977C170.8 76.5977 174.438 78.9017 174.924 83.9071H171.042C170.404 81.2383 168.525 80.0556 166.159 80.0556C162.308 80.0556 160.426 83.0892 160.426 87.486C160.426 91.8828 162.246 94.9471 166.159 94.9471C168.525 94.9471 170.406 93.7644 171.042 91.0341H174.924C174.438 96.0991 170.8 98.405 166.219 98.405C160.244 98.405 156.361 94.4325 156.361 87.486Z" fill="#F7CD29"/>
<path d="M177.472 76.8691H191.697V80.3578H181.446V85.7568H190.789V88.8807H181.446V94.6138H192V98.1024H177.472V76.8711V76.8691Z" fill="#F7CD29"/>
<path d="M124.063 13.3728V47.0803L119.749 49.1366V19.5264L100.316 28.7962V58.4006L96.0021 60.457L83.0805 54.2976L80.8533 53.2339L67.9375 47.0803V13.3728L81.9689 6.68736L96.0021 0L108.042 5.73888L80.2543 18.983V47.808L83.6815 49.44V21.143L112.023 7.63392L124.063 13.3728Z" fill="#F7CD29"/>
<path d="M124.063 13.3728V47.0803L119.749 49.1366V19.5264L100.316 28.7962V58.4006L96.0021 60.457L83.0805 54.2976L80.8533 53.2339L67.9375 47.0803V13.3728L81.9689 6.68736L96.0021 0L108.042 5.73888L80.2543 18.983V47.808L83.6815 49.44V21.143L112.023 7.63392L124.063 13.3728Z" fill="#F7CD29"/>
<path d="M116.348 24.918V49.1368L103.717 43.1177V30.941L116.348 24.918Z" fill="#C9A302"/>
</g>
<defs>
<clipPath id="clip0_0_18">
<rect width="192" height="98.4058" fill="white"/>
</clipPath>
</defs>
</svg>
