<svg width="20" height="20" viewBox="0 0 20 20" fill="none" xmlns="http://www.w3.org/2000/svg">
<path d="M6.18389 0.769231L6.18394 0H6.18389V0.769231ZM7.15645 1.47035L7.88619 1.22705L7.88614 1.22689L7.15645 1.47035ZM8.69291 6.07873L9.42267 5.83547L9.42265 5.83543L8.69291 6.07873ZM8.17909 7.32071L8.52298 8.00879L8.52336 8.0086L8.17909 7.32071ZM5.86639 8.47656L5.5225 7.78848C5.15317 7.97306 4.99544 8.41629 5.16512 8.7927L5.86639 8.47656ZM11.5224 14.1326L11.2062 14.8338C11.5825 15.0035 12.0256 14.846 12.2103 14.4769L11.5224 14.1326ZM12.6793 11.8209L11.9914 11.4766L11.9914 11.4767L12.6793 11.8209ZM13.9213 11.3071L14.1646 10.5774L14.1645 10.5773L13.9213 11.3071ZM18.5296 12.8435L18.7731 12.1139L18.7729 12.1138L18.5296 12.8435ZM19.2308 13.8161H20V13.8161L19.2308 13.8161ZM17.1795 19.2308V20V19.2308ZM2.82051 0.769231V0V0.769231ZM6.18389 0.769231L6.18385 1.53846C6.2938 1.53847 6.39172 1.60879 6.42676 1.71382L7.15645 1.47035L7.88614 1.22689C7.64182 0.494637 6.95668 4.29765e-05 6.18394 0L6.18389 0.769231ZM7.15645 1.47035L6.42671 1.71365L7.96317 6.32203L8.69291 6.07873L9.42265 5.83543L7.88619 1.22705L7.15645 1.47035ZM8.69291 6.07873L7.96315 6.32198C8.00364 6.44343 7.94848 6.57594 7.83482 6.63282L8.17909 7.32071L8.52336 8.0086C9.32227 7.60877 9.70491 6.68221 9.42267 5.83547L8.69291 6.07873ZM8.17909 7.32071L7.8352 6.63263L5.5225 7.78848L5.86639 8.47656L6.21028 9.16464L8.52298 8.00879L8.17909 7.32071ZM5.86639 8.47656L5.16512 8.7927C6.37262 11.4712 8.52802 13.6261 11.2062 14.8338L11.5224 14.1326L11.8387 13.4314C9.50231 12.3778 7.62087 10.4967 6.56765 8.16043L5.86639 8.47656ZM11.5224 14.1326L12.2103 14.4769L13.3672 12.1652L12.6793 11.8209L11.9914 11.4767L10.8345 13.7884L11.5224 14.1326ZM12.6793 11.8209L13.3672 12.1652C13.4241 12.0515 13.5566 11.9964 13.678 12.0368L13.9213 11.3071L14.1645 10.5773C13.3178 10.2951 12.3912 10.6777 11.9914 11.4766L12.6793 11.8209ZM13.9213 11.3071L13.678 12.0368L18.2863 13.5733L18.5296 12.8435L18.7729 12.1138L14.1646 10.5774L13.9213 11.3071ZM18.5296 12.8435L18.2862 13.5732C18.3912 13.6083 18.4615 13.7062 18.4615 13.8161L19.2308 13.8161L20 13.8161C20 13.0433 19.5054 12.3582 18.7731 12.1139L18.5296 12.8435ZM19.2308 13.8161H18.4615V17.1795H19.2308H20V13.8161H19.2308ZM19.2308 17.1795H18.4615C18.4615 17.8875 17.8875 18.4615 17.1795 18.4615V19.2308V20C18.7372 20 20 18.7372 20 17.1795H19.2308ZM17.1795 19.2308V18.4615H16.1538V19.2308V20H17.1795V19.2308ZM16.1538 19.2308V18.4615C8.08199 18.4615 1.53846 11.918 1.53846 3.84615H0.769231H0C0 12.7677 7.23232 20 16.1538 20V19.2308ZM0.769231 3.84615H1.53846V2.82051H0.769231H0V3.84615H0.769231ZM0.769231 2.82051H1.53846C1.53846 2.11246 2.11246 1.53846 2.82051 1.53846V0.769231V0C1.26279 6.11327e-08 0 1.26279 0 2.82051H0.769231ZM2.82051 0.769231V1.53846H6.18389V0.769231V0H2.82051V0.769231Z" fill="#333333"/>
</svg>
