<svg width="15" height="15" viewBox="0 0 15 15" fill="none" xmlns="http://www.w3.org/2000/svg">
<path d="M6.54057 0.698771C6.84256 -0.230648 8.15744 -0.230647 8.45943 0.698771L9.53841 4.01954C9.67346 4.43519 10.0608 4.7166 10.4978 4.7166H13.9895C14.9667 4.7166 15.3731 5.96713 14.5825 6.54154L11.7576 8.59389C11.4041 8.85077 11.2561 9.30611 11.3912 9.72176L12.4702 13.0425C12.7721 13.9719 11.7084 14.7448 10.9178 14.1704L8.09296 12.1181C7.73939 11.8612 7.26061 11.8612 6.90704 12.1181L4.08223 14.1704C3.29162 14.7448 2.22786 13.9719 2.52984 13.0425L3.60883 9.72176C3.74388 9.30611 3.59593 8.85077 3.24236 8.59389L0.417546 6.54154C-0.373065 5.96713 0.0332553 4.7166 1.0105 4.7166H4.50216C4.9392 4.7166 5.32654 4.43519 5.46159 4.01954L6.54057 0.698771Z" fill="#F7CD29"/>
</svg>
