<?xml version="1.0" encoding="UTF-8"?>
<svg version="1.1" xmlns="http://www.w3.org/2000/svg" width="1001" height="1078">
<path d="M0 0 C0.65480347 0.31011017 1.30960693 0.62022034 1.98425293 0.93972778 C4.13198853 1.95984867 6.27294029 2.99342356 8.4140625 4.02734375 C9.92949536 4.75050005 11.44528957 5.47289956 12.96142578 6.19458008 C24.69308948 11.79045284 36.37960065 17.48147554 48.06445312 23.17431641 C57.75610461 27.89068449 67.51087559 32.45543823 77.30224609 36.96166992 C87.53739378 41.69076911 97.66928126 46.62088905 107.79980469 51.5690918 C117.45902907 56.28470924 127.14726637 60.9126759 136.9140625 65.40234375 C148.10915248 70.55303974 159.21046127 75.88150584 170.2890625 81.27734375 C171.0592572 81.65220917 171.8294519 82.02707458 172.62298584 82.41329956 C183.12885986 87.53004879 193.59671118 92.71973401 204.0390625 97.96484375 C200.39078228 100.99836506 196.34493786 102.90908792 192.1015625 104.95703125 C190.92614899 105.53006989 190.92614899 105.53006989 189.72698975 106.11468506 C187.16654989 107.36099709 184.60296236 108.60066707 182.0390625 109.83984375 C180.25419009 110.70613157 178.46935969 111.57250597 176.68457031 112.43896484 C165.66724066 117.77748654 154.60328673 122.99968026 143.47851562 128.11083984 C134.10114368 132.43309452 124.81659269 136.93313381 115.5390625 141.46484375 C105.12709025 146.55060639 94.69324167 151.56261578 84.1640625 156.40234375 C73.2120276 161.43746831 62.36667371 166.6687834 51.5390625 171.96484375 C39.60935808 177.79996596 27.64139599 183.51583257 15.57421875 189.0625 C6.16602305 193.40307472 -3.15131735 197.91755479 -12.4609375 202.46484375 C-22.87292183 207.55058309 -33.30675746 212.56261538 -43.8359375 217.40234375 C-55.59862516 222.81016048 -67.2362174 228.45271422 -78.86517334 234.14083862 C-89.94716049 239.55875233 -101.07575171 244.84192055 -112.28515625 249.9921875 C-122.07896059 254.51153795 -131.77205929 259.22567843 -141.4609375 263.96484375 C-153.39062969 269.79998963 -165.3586049 275.51583297 -177.42578125 281.0625 C-186.83397695 285.40307472 -196.15131735 289.91755479 -205.4609375 294.46484375 C-216.95911113 300.08113283 -228.49698706 305.57694993 -240.12866211 310.9128418 C-247.06865003 314.11263849 -253.95444403 317.40614105 -260.81640625 320.76953125 C-261.66213196 321.18366776 -262.50785767 321.59780426 -263.37921143 322.02449036 C-267.57929733 324.08301297 -271.77526427 326.14945148 -275.96630859 328.22631836 C-277.4969923 328.97916254 -279.02775041 329.73185548 -280.55859375 330.484375 C-281.26348434 330.83680267 -281.96837494 331.18923035 -282.69462585 331.55233765 C-285.63927797 332.99432724 -287.63695048 333.96484375 -290.9609375 333.96484375 C-290.9609375 503.58484375 -290.9609375 673.20484375 -290.9609375 847.96484375 C-288.9809375 848.62484375 -287.0009375 849.28484375 -284.9609375 849.96484375 C-283.56623493 850.56186302 -282.18262897 851.18579816 -280.81420898 851.84082031 C-280.05579208 852.20169739 -279.29737518 852.56257446 -278.51597595 852.93438721 C-277.7127742 853.32084412 -276.90957245 853.70730103 -276.08203125 854.10546875 C-275.23351089 854.51013367 -274.38499054 854.91479858 -273.51075745 855.33172607 C-270.80506829 856.62281645 -268.10167227 857.91862349 -265.3984375 859.21484375 C-262.71976299 860.49585405 -260.04060776 861.7758499 -257.36109924 863.05511475 C-255.6996587 863.84869641 -254.03875115 864.64339548 -252.37852478 865.43951416 C-245.6014556 868.68255944 -238.78492746 871.81530992 -231.9609375 874.96484375 C-231.6309375 708.97484375 -231.3009375 542.98484375 -230.9609375 371.96484375 C-221.39820697 367.18347848 -211.84445296 362.41012552 -202.2109375 357.77734375 C-201.06028809 357.22328857 -199.90963867 356.6692334 -198.72412109 356.09838867 C-190.71062039 352.25253889 -182.65875141 348.49674623 -174.5859375 344.77734375 C-162.66125262 339.2815237 -150.85543271 333.55983705 -139.06091309 327.79095459 C-127.93054873 322.34949988 -116.75359021 317.04168587 -105.49609375 311.8671875 C-96.08789805 307.52661278 -86.77055765 303.01213271 -77.4609375 298.46484375 C-67.04895317 293.37910441 -56.61511754 288.36707212 -46.0859375 283.52734375 C-34.32324984 278.11952702 -22.6856576 272.47697328 -11.05670166 266.78884888 C0.02528549 261.37093517 11.15387671 256.08776695 22.36328125 250.9375 C32.15708559 246.41814955 41.85018429 241.70400907 51.5390625 236.96484375 C63.46875469 231.12969787 75.4367299 225.41385453 87.50390625 219.8671875 C96.91210195 215.52661278 106.22944235 211.01213271 115.5390625 206.46484375 C125.95104683 201.37910441 136.38488246 196.36707212 146.9140625 191.52734375 C157.8660974 186.49221919 168.71145129 181.2609041 179.5390625 175.96484375 C191.45637917 170.13578071 203.41132615 164.42444837 215.46655273 158.88476562 C227.46533191 153.34995467 239.33116858 147.54537075 251.19909668 141.73655701 C253.87364747 140.43149924 256.55426448 139.1391493 259.23468018 137.84619141 C260.91959391 137.02319799 262.59102213 136.17275403 264.26123047 135.3203125 C265.20756348 134.85238281 266.15389648 134.38445312 267.12890625 133.90234375 C267.92031006 133.49886719 268.71171387 133.09539062 269.52709961 132.6796875 C275.84025258 130.88311719 281.31517113 133.74306693 286.83203125 136.54296875 C287.56691269 136.90558304 288.30179413 137.26819733 289.0589447 137.64179993 C290.63343682 138.4197771 292.20579916 139.20207701 293.77618408 139.98831177 C297.9491046 142.07705873 302.13774146 144.13391182 306.32421875 146.1953125 C307.1609613 146.60841171 307.99770386 147.02151093 308.85980225 147.4471283 C315.91047678 150.92157737 323.01796314 154.25312711 330.1640625 157.52734375 C341.45647669 162.71595137 352.63498196 168.11564083 363.80090332 173.56964111 C373.45975275 178.28506934 383.14750465 182.913154 392.9140625 187.40234375 C403.86610489 192.43747176 414.71135049 197.66897692 425.5390625 202.96484375 C438.80991741 209.45485952 452.13247433 215.80132835 465.5546875 221.97265625 C473.40263818 225.59406 481.21853408 229.28459508 489.0390625 232.96484375 C489.0390625 431.95484375 489.0390625 630.94484375 489.0390625 835.96484375 C470.73373196 844.84015553 452.49704655 853.66481845 434.03125 862.16796875 C428.07623433 864.9250238 422.21722204 867.83544261 416.41015625 870.890625 C414.0390625 871.96484375 414.0390625 871.96484375 411.0390625 871.96484375 C410.7090625 698.38484375 410.3790625 524.80484375 410.0390625 345.96484375 C397.1690625 352.23484375 384.2990625 358.50484375 371.0390625 364.96484375 C356.9140625 371.52734375 356.9140625 371.52734375 350.25 374.59375 C341.62109812 378.59663551 333.08345588 382.78538666 324.5390625 386.96484375 C312.65634093 392.77715267 300.73541309 398.46922321 288.71484375 403.9921875 C278.92104008 408.51153764 269.22793075 413.22565926 259.5390625 417.96484375 C247.65632876 423.77712914 235.73541397 429.4692228 223.71484375 434.9921875 C213.92104008 439.51153764 204.22793075 444.22565926 194.5390625 448.96484375 C182.65632876 454.77712914 170.73541397 460.4692228 158.71484375 465.9921875 C148.11799432 470.88210306 137.63820672 476.00232186 127.15542603 481.13104248 C115.67265165 486.74643292 104.14663345 492.24389173 92.51953125 497.5546875 C83.90947978 501.50096109 75.52963072 505.71955964 67.0390625 509.96484375 C66.7090625 683.87484375 66.3790625 857.78484375 66.0390625 1036.96484375 C44.35900249 1048.37540165 44.35900249 1048.37540165 33.6640625 1053.21484375 C31.27328187 1054.30034076 28.88345144 1055.38750324 26.49609375 1056.48046875 C25.5889286 1056.89576843 25.5889286 1056.89576843 24.66343689 1057.31945801 C20.08517538 1059.43551934 15.59524387 1061.6998177 11.11328125 1064.01171875 C9.15842573 1065.00628907 7.20257775 1065.99888348 5.246521 1066.99108887 C3.9958699 1067.63375604 2.7505849 1068.28698895 1.5112915 1068.95129395 C-0.21936834 1069.87825 -1.97079865 1070.76610113 -3.72265625 1071.65234375 C-5.207052 1072.43158203 -5.207052 1072.43158203 -6.72143555 1073.2265625 C-13.99102355 1074.88329881 -21.43618778 1069.94777388 -27.82421875 1066.75390625 C-28.64523575 1066.34963913 -29.46625275 1065.94537201 -30.31214905 1065.52885437 C-32.06226405 1064.66673418 -33.8111969 1063.80221058 -35.559021 1062.93545532 C-40.17494423 1060.64721411 -44.80029358 1058.37820533 -49.42578125 1056.109375 C-50.79944855 1055.43508705 -50.79944855 1055.43508705 -52.2008667 1054.74717712 C-59.53396313 1051.15543704 -66.91328986 1047.68070489 -74.3359375 1044.27734375 C-84.78333209 1039.48219984 -95.13253628 1034.50996895 -105.4609375 1029.46484375 C-115.87289768 1024.37905783 -126.30675921 1019.36707131 -136.8359375 1014.52734375 C-148.59862516 1009.11952702 -160.2362174 1003.47697328 -171.86517334 997.78884888 C-181.85046409 992.90710313 -191.86078156 988.10545594 -201.9609375 983.46484375 C-213.6828471 978.0791015 -225.27833969 972.45639261 -236.86572266 966.78857422 C-246.85083023 961.90692085 -256.860968 957.10537028 -266.9609375 952.46484375 C-277.87192861 947.45168567 -288.67510138 942.24056911 -299.4609375 936.96484375 C-311.39062969 931.12969787 -323.3586049 925.41385453 -335.42578125 919.8671875 C-345.59583428 915.17512151 -355.65933985 910.27553831 -365.72277832 905.36004639 C-375.38162775 900.64461816 -385.06937965 896.0165335 -394.8359375 891.52734375 C-406.59794499 886.11983973 -418.23483474 880.47756554 -429.86315918 874.78985596 C-440.97450157 869.35771338 -452.13111266 864.05606486 -463.37084961 858.89355469 C-474.89101112 853.58134471 -486.286107 848.01572915 -497.67822266 842.43530273 C-498.40715225 842.07897263 -499.13608185 841.72264252 -499.88710022 841.35551453 C-501.25873477 840.68478657 -502.62957876 840.01243865 -503.99949646 839.33821106 C-506.63251558 838.05092883 -509.17609848 836.89312342 -511.9609375 835.96484375 C-511.9609375 637.30484375 -511.9609375 438.64484375 -511.9609375 233.96484375 C-493.40831846 224.68853423 -493.40831846 224.68853423 -487.7265625 221.921875 C-486.71020218 221.42624054 -486.71020218 221.42624054 -485.67330933 220.92059326 C-483.51985599 219.87145842 -481.36553325 218.82413025 -479.2109375 217.77734375 C-478.07709625 217.22601273 -478.07709625 217.22601273 -476.92034912 216.6635437 C-465.9148542 211.31614762 -454.85847165 206.10100745 -443.74121094 200.98950195 C-433.91330484 196.45133825 -424.1847488 191.72100746 -414.4609375 186.96484375 C-402.53123308 181.12972154 -390.56327099 175.41385493 -378.49609375 169.8671875 C-369.08789805 165.52661278 -359.77055765 161.01213271 -350.4609375 156.46484375 C-340.04895317 151.37910441 -329.61511754 146.36707212 -319.0859375 141.52734375 C-308.1339026 136.49221919 -297.28854871 131.2609041 -286.4609375 125.96484375 C-274.53123308 120.12972154 -262.56327099 114.41385493 -250.49609375 108.8671875 C-241.08789734 104.52661246 -231.77056844 100.01211186 -222.4609375 95.46484375 C-210.89716032 89.81662961 -199.29026851 84.29575557 -187.59765625 78.91796875 C-177.3948468 74.20718587 -167.29687312 69.29228873 -157.199646 64.36032104 C-147.54061341 59.64480032 -137.85268181 55.01661921 -128.0859375 50.52734375 C-117.1339026 45.49221919 -106.28854871 40.2609041 -95.4609375 34.96484375 C-83.54800821 29.13792669 -71.60599965 23.40806037 -59.54223633 17.89794922 C-52.86462397 14.83184262 -46.26787008 11.64342293 -39.69921875 8.3515625 C-38.09858868 7.55453061 -36.49784013 6.7577366 -34.89697266 5.96118164 C-32.53974104 4.78798406 -30.1863729 3.60925927 -27.84246826 2.40963745 C-25.67469231 1.30019705 -23.49699446 0.21289357 -21.31640625 -0.87109375 C-20.6759285 -1.20679886 -20.03545074 -1.54250397 -19.37556458 -1.88838196 C-12.17037672 -5.41451953 -6.87474455 -3.28781907 0 0 Z " fill="#F7CD29" transform="translate(511.9609375,4.03515625)"/>
<path d="M0 0 C0 142.56 0 285.12 0 432 C-6.16271299 429.94576234 -11.68710617 427.87700911 -17.42578125 425.0078125 C-18.20231552 424.62578674 -18.97884979 424.24376099 -19.77891541 423.85015869 C-21.43478012 423.03516077 -23.08946522 422.21776237 -24.74304199 421.39813232 C-29.12577778 419.22654494 -33.51793596 417.07419887 -37.91015625 414.921875 C-38.78332489 414.49365448 -39.65649353 414.06543396 -40.55612183 413.62423706 C-47.74273504 410.10763973 -54.97754956 406.71092703 -62.25 403.375 C-72.73846322 398.5579616 -83.1298078 393.56540346 -93.5 388.5 C-103.95375637 383.39393533 -114.42973413 378.3615857 -125 373.5 C-135.57027292 368.63841106 -146.04614633 363.60587685 -156.5 358.5 C-168.32646349 352.72424792 -180.19630213 347.07087485 -192.14770508 341.55761719 C-199.85096904 338.0032218 -207.53064827 334.403371 -215.1875 330.75 C-216.16879883 330.28352051 -217.15009766 329.81704102 -218.16113281 329.33642578 C-219.4948291 328.69809814 -219.4948291 328.69809814 -220.85546875 328.046875 C-221.63559326 327.67401367 -222.41571777 327.30115234 -223.21948242 326.91699219 C-225 326 -225 326 -226 325 C-226.09790618 322.19314649 -226.12992803 319.41090064 -226.12025452 316.60362244 C-226.12110894 315.7125536 -226.12196337 314.82148476 -226.12284368 313.90341383 C-226.12450122 310.89384123 -226.11897265 307.88432339 -226.11352539 304.87475586 C-226.11324355 302.72685243 -226.11340119 300.5789489 -226.1139679 298.43104553 C-226.114256 292.58004331 -226.1083572 286.7290614 -226.10139394 280.87806392 C-226.09516253 274.77080687 -226.09455677 268.66354941 -226.09336853 262.55628967 C-226.09025458 250.98238035 -226.08204035 239.40848042 -226.07201904 227.83457524 C-226.06085986 214.66188977 -226.05534795 201.48920386 -226.05032361 188.31651485 C-226.03985778 161.21100468 -226.02225712 134.10550287 -226 107 C-222.97364218 105.39756038 -219.94570056 103.79813594 -216.91748047 102.19921875 C-216.06723801 101.74897339 -215.21699554 101.29872803 -214.34098816 100.83483887 C-207.69432294 97.32818381 -200.97448776 94.09359273 -194.125 91 C-182.83426533 85.83059607 -171.65326274 80.45926013 -160.5 75 C-148.61771103 69.18683815 -136.69632295 63.49560784 -124.67578125 57.97265625 C-114.88197758 53.45330611 -105.18886825 48.73918449 -95.5 44 C-83.63113187 38.19449678 -71.7249175 32.50716739 -59.7175293 26.99243164 C-47.89761819 21.53953096 -36.20955109 15.818697 -24.52148438 10.08984375 C-3.92356076 0 -3.92356076 0 0 0 Z " fill="#C9A302" transform="translate(864,444)"/>
</svg>
