<svg width="220" height="114" viewBox="0 0 220 114" fill="none" xmlns="http://www.w3.org/2000/svg">
<g clip-path="url(#clip0_1_83598)">
<path d="M0 104.971H4.68193C4.82022 107.328 6.2777 109.2 9.91701 109.2C13.0032 109.2 14.7021 107.883 14.7021 105.699C14.7021 103.724 13.35 102.857 10.9223 102.37L7.5947 101.711C3.6415 100.949 0.6585 99.11 0.6585 95.0185C0.6585 90.5451 4.22976 88.0845 9.77872 88.0845C15.3277 88.0845 18.8638 90.6153 18.8638 95.2972H14.1819C14.1819 93.0781 12.4478 91.8994 9.67336 91.8994C6.58719 91.8994 5.4436 93.3569 5.4436 95.0207C5.4436 96.3728 6.27551 97.5515 8.70317 98.0717L11.8245 98.6951C17.2329 99.7707 19.5223 101.884 19.5223 105.664C19.5223 110.658 15.4309 113.015 9.88189 113.015C3.67443 113.015 0 110.034 0 104.971Z" fill="#F7CD29"/>
<path d="M22.7468 88.394H32.2819C38.5223 88.394 41.367 91.6185 41.367 96.3356C41.367 101.053 38.5245 104.242 32.2819 104.242H27.2883V112.669H22.7446V88.3962L22.7468 88.394ZM36.6873 96.3356C36.6873 93.8728 35.232 92.3824 32.1107 92.3824H27.2905V100.254H32.1107C35.232 100.254 36.6873 98.7632 36.6873 96.3356Z" fill="#F7CD29"/>
<path d="M48.7882 88.394H54.6137L63.5254 112.666H58.7052L56.9711 107.708H46.3956L44.6616 112.666H39.8765L48.7882 88.394ZM55.7924 104.31L51.8392 93.076H51.5626L47.6094 104.31H55.7924Z" fill="#F7CD29"/>
<path d="M66.0234 88.394H75.5585C81.7989 88.394 84.6436 91.6185 84.6436 96.3356C84.6436 99.8388 83.0479 102.543 79.5819 103.651L84.8521 112.666H80.3107L75.4905 104.24H70.5671V112.666H66.0256V88.394H66.0234ZM79.9639 96.3356C79.9639 93.8728 78.5086 92.3824 75.3873 92.3824H70.5671V100.254H75.3873C78.5086 100.254 79.9639 98.7632 79.9639 96.3356Z" fill="#F7CD29"/>
<path d="M87.7297 88.394H103.992V92.3824H92.2734V98.5547H102.954V102.126H92.2734V108.68H104.339V112.669H87.7297V88.3962V88.394Z" fill="#F7CD29"/>
<path d="M114.638 104.971H119.32C119.458 107.328 120.916 109.2 124.555 109.2C127.641 109.2 129.34 107.883 129.34 105.699C129.34 103.724 127.988 102.857 125.561 102.37L122.233 101.711C118.28 100.949 115.299 99.11 115.299 95.0185C115.299 90.5451 118.87 88.0845 124.419 88.0845C129.968 88.0845 133.504 90.6153 133.504 95.2972H128.822C128.822 93.0781 127.088 91.8994 124.314 91.8994C121.228 91.8994 120.084 93.3569 120.084 95.0207C120.084 96.3728 120.916 97.5515 123.344 98.0717L126.465 98.6951C131.873 99.7707 134.163 101.884 134.163 105.664C134.163 110.658 130.071 113.015 124.522 113.015C118.315 113.015 114.64 110.034 114.64 104.971H114.638Z" fill="#F7CD29"/>
<path d="M137.387 88.394H146.922C153.163 88.394 156.007 91.6185 156.007 96.3356C156.007 101.053 153.165 104.242 146.922 104.242H141.929V112.669H137.387V88.3962V88.394ZM151.325 96.3356C151.325 93.8728 149.87 92.3824 146.749 92.3824H141.929V100.254H146.749C149.87 100.254 151.325 98.7632 151.325 96.3356Z" fill="#F7CD29"/>
<path d="M163.429 88.394H169.254L178.166 112.666H173.346L171.612 107.708H161.036L159.302 112.666H154.517L163.429 88.394ZM170.433 104.31L166.48 93.076H166.203L162.25 104.31H170.433Z" fill="#F7CD29"/>
<path d="M178.756 100.532C178.756 92.6259 183.195 88.0845 190.061 88.0845C195.263 88.0845 199.422 90.7185 199.978 96.4408H195.539C194.811 93.3898 192.662 92.0377 189.957 92.0377C185.554 92.0377 183.403 95.5058 183.403 100.532C183.403 105.559 185.484 109.062 189.957 109.062C192.662 109.062 194.813 107.71 195.539 104.589H199.978C199.422 110.379 195.263 113.015 190.025 113.015C183.195 113.015 178.756 108.474 178.756 100.532Z" fill="#F7CD29"/>
<path d="M202.89 88.394H219.153V92.3824H207.434V98.5547H218.115V102.126H207.434V108.68H219.5V112.669H202.89V88.3962V88.394Z" fill="#F7CD29"/>
<path d="M141.832 15.8031V54.3385L136.9 56.6893V22.838L114.684 33.4355V67.2802L109.752 69.6311L94.9799 62.5895L92.4337 61.3735L77.668 54.3385V15.8031L93.709 8.16008L109.752 0.514893L123.517 7.07575L91.7489 22.2169V55.1704L95.667 57.0361V24.6862L128.067 9.24221L141.832 15.8031Z" fill="#F7CD29"/>
<path d="M141.832 15.8031V54.3385L136.9 56.6893V22.838L114.684 33.4355V67.2802L109.752 69.6311L94.9799 62.5895L92.4337 61.3735L77.668 54.3385V15.8031L93.709 8.16008L109.752 0.514893L123.517 7.07575L91.7489 22.2169V55.1704L95.667 57.0361V24.6862L128.067 9.24221L141.832 15.8031Z" fill="#F7CD29"/>
<path d="M133.013 29.0017V56.6894L118.572 49.8081V35.8874L133.013 29.0017Z" fill="#C9A302"/>
</g>
<defs>
<clipPath id="clip0_1_83598">
<rect width="219.5" height="112.5" fill="white" transform="translate(0 0.514893)"/>
</clipPath>
</defs>
</svg>
