<svg width="288" height="176" viewBox="0 0 288 176" fill="none" xmlns="http://www.w3.org/2000/svg">
<g clip-path="url(#clip0_1909_36380)">
<path d="M147.743 142.325L47.0626 168.276C43.6474 169.152 40.0244 168.636 36.9885 166.842C33.9526 165.048 31.7517 162.121 30.8686 158.705L0.421868 40.3521C-0.453436 36.9337 0.0616792 33.3073 1.85421 30.2686C3.64673 27.2298 6.57029 25.0268 9.98349 24.1429L103.651 0L127.623 10.7422L157.305 126.115C158.18 129.534 157.665 133.16 155.873 136.199C154.08 139.238 151.157 141.441 147.743 142.325Z" fill="#F2F2F2"/>
<path d="M10.9363 27.8538C8.50572 28.4832 6.42376 30.0519 5.14723 32.2159C3.87071 34.3798 3.50386 36.9622 4.12715 39.3966L34.5758 157.75C35.2047 160.183 36.7719 162.267 38.9338 163.544C41.0957 164.822 43.6757 165.189 46.1078 164.565L146.789 138.615C149.219 137.986 151.301 136.417 152.578 134.253C153.854 132.089 154.221 129.507 153.598 127.072L124.376 13.4859L103.307 4.04492L10.9363 27.8538Z" fill="white"/>
<path d="M127.367 11.3539L111.786 15.3702C110.648 15.6634 109.441 15.4922 108.429 14.8945C107.418 14.2967 106.685 13.3212 106.392 12.1826L103.429 0.663264C103.416 0.612859 103.417 0.559838 103.433 0.510268C103.449 0.460698 103.478 0.41658 103.518 0.382966C103.558 0.349353 103.606 0.327604 103.658 0.320202C103.709 0.3128 103.761 0.320043 103.809 0.34111L127.411 10.8324C127.463 10.8558 127.507 10.8949 127.537 10.9444C127.566 10.9939 127.579 11.0513 127.574 11.1086C127.569 11.1659 127.547 11.2203 127.51 11.2643C127.473 11.3082 127.423 11.3396 127.367 11.3539Z" fill="#F2F2F2"/>
<path d="M119.17 112.424L73.3315 124.24C72.764 124.383 72.1631 124.295 71.6601 123.996C71.157 123.697 70.7928 123.21 70.6469 122.643C70.5009 122.076 70.5853 121.474 70.8814 120.969C71.1775 120.463 71.6613 120.096 72.2271 119.947L118.066 108.131C118.348 108.056 118.642 108.038 118.931 108.078C119.22 108.118 119.499 108.215 119.751 108.362C120.002 108.51 120.222 108.706 120.398 108.94C120.574 109.173 120.702 109.439 120.775 109.721C120.847 110.004 120.863 110.299 120.822 110.588C120.781 110.877 120.683 111.155 120.534 111.407C120.385 111.658 120.187 111.877 119.953 112.051C119.719 112.226 119.453 112.353 119.17 112.424Z" fill="#CCCCCC"/>
<path d="M129.88 117.388L75.1949 131.484C74.9127 131.558 74.6185 131.576 74.3294 131.536C74.0402 131.497 73.7618 131.4 73.51 131.252C73.2583 131.104 73.0382 130.908 72.8625 130.675C72.6868 130.442 72.5589 130.176 72.4861 129.893C72.4133 129.61 72.3971 129.316 72.4385 129.026C72.4798 128.737 72.5778 128.459 72.7269 128.208C72.876 127.957 73.0733 127.738 73.3073 127.563C73.5413 127.388 73.8075 127.262 74.0905 127.191L128.775 113.095C129.343 112.952 129.944 113.04 130.447 113.339C130.95 113.639 131.314 114.125 131.46 114.692C131.606 115.259 131.521 115.861 131.225 116.367C130.929 116.872 130.445 117.239 129.88 117.388Z" fill="#CCCCCC"/>
<path d="M54.6227 138.469C58.9454 138.469 62.4497 134.961 62.4497 130.634C62.4497 126.307 58.9454 122.8 54.6227 122.8C50.2999 122.8 46.7957 126.307 46.7957 130.634C46.7957 134.961 50.2999 138.469 54.6227 138.469Z" fill="#F7CD29"/>
<path d="M114.296 91.9215L53.4172 107.607C51.6578 108.059 49.7914 107.793 48.2275 106.868C46.6637 105.944 45.53 104.436 45.0753 102.676L32.3179 53.0682C31.8676 51.3073 32.1333 49.4396 33.0569 47.8746C33.9804 46.3095 35.4864 45.1751 37.2445 44.7199L98.1226 29.0342C99.882 28.5829 101.748 28.8487 103.312 29.7732C104.876 30.6976 106.01 32.2053 106.465 33.9654L119.222 83.5733C119.673 85.3342 119.407 87.2019 118.483 88.7669C117.56 90.3319 116.054 91.4664 114.296 91.9215Z" fill="white"/>
<path d="M114.296 91.9215L53.4172 107.607C51.6578 108.059 49.7914 107.793 48.2275 106.868C46.6637 105.944 45.53 104.436 45.0753 102.676L32.3179 53.0682C31.8676 51.3073 32.1333 49.4396 33.0569 47.8746C33.9804 46.3095 35.4864 45.1751 37.2445 44.7199L98.1226 29.0342C99.882 28.5829 101.748 28.8487 103.312 29.7732C104.876 30.6976 106.01 32.2053 106.465 33.9654L119.222 83.5733C119.673 85.3342 119.407 87.2019 118.483 88.7669C117.56 90.3319 116.054 91.4664 114.296 91.9215ZM37.4452 45.4997C35.894 45.9017 34.5654 46.9031 33.7508 48.2843C32.9362 49.6654 32.7022 51.3136 33.1 52.8673L45.8578 102.475C46.2594 104.028 47.2599 105.358 48.6398 106.173C50.0196 106.988 51.6663 107.223 53.2184 106.824L114.095 91.1402C115.647 90.7382 116.975 89.7368 117.79 88.3557C118.604 86.9745 118.838 85.3263 118.441 83.7727L105.684 34.1647C105.282 32.6121 104.282 31.2822 102.902 30.4669C101.522 29.6515 99.8755 29.4173 98.3233 29.8155L37.4452 45.4997Z" fill="#E6E6E6"/>
<path d="M95.034 45.7122L64.3104 53.6286C64.0419 53.7036 63.7549 53.6739 63.5074 53.5453C63.2599 53.4167 63.0705 53.1988 62.9773 52.9358C62.9339 52.7983 62.919 52.6534 62.9334 52.51C62.9479 52.3666 62.9914 52.2276 63.0612 52.1015C63.1311 51.9754 63.2259 51.865 63.3399 51.7768C63.4538 51.6886 63.5845 51.6246 63.724 51.5887L94.9995 43.5303C96.263 44.1711 95.9304 45.4817 95.0345 45.7126L95.034 45.7122Z" fill="#F2F2F2"/>
<path d="M96.4203 51.1048L65.6967 59.0212C65.4281 59.0962 65.1411 59.0664 64.8936 58.9378C64.6462 58.8092 64.4567 58.5914 64.3635 58.3284C64.3201 58.1909 64.3052 58.046 64.3197 57.9026C64.3341 57.7591 64.3776 57.6201 64.4475 57.4941C64.5173 57.368 64.6121 57.2575 64.7261 57.1694C64.8401 57.0812 64.9708 57.0172 65.1103 56.9813L96.3857 48.9229C97.6492 49.5637 97.3166 50.8742 96.4207 51.1052L96.4203 51.1048Z" fill="#F2F2F2"/>
<path d="M59.8449 63.8058L50.4683 66.221C50.3166 66.2601 50.1588 66.2689 50.0037 66.247C49.8487 66.225 49.6994 66.1727 49.5646 66.093C49.4298 66.0133 49.3119 65.9077 49.2179 65.7824C49.1238 65.6571 49.0553 65.5145 49.0163 65.3627L46.1677 54.2894C46.1286 54.1377 46.1198 53.9796 46.1418 53.8244C46.1637 53.6692 46.216 53.5199 46.2956 53.3849C46.3753 53.25 46.4807 53.132 46.6059 53.0379C46.7311 52.9437 46.8735 52.8751 47.0252 52.8361L56.4019 50.4201C56.7081 50.3417 57.0329 50.388 57.3051 50.5489C57.5773 50.7098 57.7746 50.9721 57.8538 51.2785L60.7024 62.3544C60.7415 62.5062 60.7503 62.6642 60.7284 62.8194C60.7064 62.9746 60.6541 63.1239 60.5745 63.2589C60.4949 63.3939 60.3895 63.5118 60.2643 63.606C60.1391 63.7001 59.9966 63.7687 59.8449 63.8077V63.8058Z" fill="#F7CD29"/>
<path d="M99.1724 62.1745L52.2814 74.2562C52.0128 74.3312 51.7258 74.3014 51.4784 74.1728C51.2309 74.0442 51.0414 73.8264 50.9482 73.5634C50.9049 73.4259 50.89 73.281 50.9044 73.1376C50.9188 72.9941 50.9623 72.8551 51.0322 72.7291C51.1021 72.603 51.1969 72.4925 51.3108 72.4044C51.4248 72.3162 51.5555 72.2522 51.695 72.2163L99.1378 59.9922C100.401 60.633 100.068 61.9436 99.1724 62.1745Z" fill="#F2F2F2"/>
<path d="M100.561 67.5706L53.6691 79.6526C53.4005 79.7277 53.1135 79.6979 52.8661 79.5693C52.6186 79.4407 52.4291 79.2229 52.3359 78.9598C52.2926 78.8224 52.2776 78.6775 52.2921 78.534C52.3065 78.3906 52.35 78.2516 52.4199 78.1256C52.4898 77.9995 52.5846 77.889 52.6985 77.8008C52.8125 77.7127 52.9432 77.6487 53.0827 77.6127L100.526 65.3887C101.789 66.0295 101.456 67.3401 100.56 67.571L100.561 67.5706Z" fill="#F2F2F2"/>
<path d="M101.947 72.9636L55.0557 85.0452C54.7871 85.1203 54.5001 85.0905 54.2527 84.9619C54.0052 84.8333 53.8157 84.6155 53.7225 84.3524C53.6792 84.215 53.6642 84.0701 53.6787 83.9266C53.6931 83.7832 53.7366 83.6442 53.8065 83.5181C53.8763 83.3921 53.9712 83.2816 54.0851 83.1934C54.1991 83.1052 54.3298 83.0412 54.4693 83.0053L101.912 70.7812C103.175 71.4221 102.843 72.7326 101.947 72.9636Z" fill="#F2F2F2"/>
<path d="M103.335 78.3591L56.4435 90.4407C56.1749 90.5158 55.8879 90.486 55.6405 90.3574C55.393 90.2288 55.2035 90.011 55.1103 89.7479C55.067 89.6105 55.0521 89.4656 55.0665 89.3221C55.0809 89.1787 55.1244 89.0397 55.1943 88.9136C55.2642 88.7876 55.359 88.6771 55.4729 88.5889C55.5869 88.5008 55.7176 88.4368 55.8571 88.4008L103.3 76.1768C104.563 76.8176 104.231 78.1281 103.335 78.3591Z" fill="#F2F2F2"/>
<path d="M104.721 83.7516L57.8304 95.8333C57.5619 95.9084 57.2749 95.8786 57.0274 95.75C56.78 95.6214 56.5905 95.4035 56.4973 95.1405C56.4539 95.003 56.439 94.8581 56.4535 94.7147C56.4679 94.5713 56.5114 94.4323 56.5812 94.3062C56.6511 94.1802 56.7459 94.0697 56.8599 93.9815C56.9738 93.8933 57.1046 93.8293 57.244 93.7934L104.687 81.5693C105.95 82.2102 105.617 83.5207 104.721 83.7516Z" fill="#F2F2F2"/>
<mask id="mask0_1909_36380" style="mask-type:alpha" maskUnits="userSpaceOnUse" x="48" y="125" width="12" height="12">
<rect width="9.03187" height="8.99286" transform="matrix(0.966248 -0.257614 0.260028 0.965601 48.7565 127.557)" fill="#D9D9D9"/>
</mask>
<g mask="url(#mask0_1909_36380)">
<path d="M52.9349 133.811L52.2894 133.44L53.7801 130.871L51.1982 129.387L51.5708 128.745L54.1528 130.228L55.6435 127.659L56.2889 128.03L54.7983 130.599L57.3802 132.082L57.0075 132.725L54.4256 131.241L52.9349 133.811Z" fill="white"/>
</g>
<path d="M246.581 173.46L144.52 153.599C141.059 152.922 138.008 150.898 136.037 147.972C134.065 145.046 133.333 141.457 134.002 137.992L157.294 18.0284C157.97 14.5652 159.992 11.5121 162.915 9.5389C165.838 7.56574 169.423 6.83366 172.885 7.50329L267.836 25.9808L284.878 45.9904L262.172 162.934C261.496 166.398 259.475 169.451 256.552 171.424C253.629 173.398 250.043 174.13 246.581 173.46Z" fill="#E6E6E6"/>
<path d="M172.155 11.2651C169.689 10.7883 167.136 11.3096 165.055 12.7147C162.973 14.1198 161.534 16.294 161.052 18.7602L137.76 138.724C137.284 141.191 137.805 143.747 139.209 145.83C140.614 147.914 142.786 149.355 145.25 149.837L247.311 169.698C249.777 170.175 252.33 169.654 254.411 168.249C256.493 166.843 257.932 164.669 258.414 162.203L280.767 47.0718L265.792 29.4868L172.155 11.2651Z" fill="white"/>
<path d="M247.592 62.142L201.128 53.101C200.551 52.9888 200.043 52.652 199.714 52.1647C199.386 51.6774 199.264 51.0795 199.376 50.5026C199.488 49.9256 199.825 49.4169 200.312 49.0882C200.799 48.7596 201.396 48.6379 201.973 48.7501L248.438 57.7914C249.015 57.9036 249.523 58.2404 249.852 58.7277C250.18 59.2149 250.302 59.8128 250.19 60.3898C250.078 60.9668 249.741 61.4755 249.254 61.8042C248.767 62.1328 248.17 62.2544 247.594 62.1422L247.592 62.142Z" fill="#F7CD29"/>
<path d="M255.133 71.2304L199.702 60.4447C199.125 60.3325 198.617 59.9957 198.288 59.5084C197.96 59.0211 197.838 58.4233 197.95 57.8463C198.062 57.2693 198.399 56.7606 198.886 56.4319C199.373 56.1033 199.97 55.9817 200.546 56.0939L255.978 66.8796C256.555 66.9918 257.063 67.3286 257.391 67.8159C257.72 68.3032 257.841 68.901 257.729 69.478C257.617 70.055 257.281 70.5637 256.794 70.8924C256.307 71.221 255.71 71.3426 255.133 71.2304Z" fill="#F7CD29"/>
<path d="M242.047 90.6991L195.584 81.6583C195.007 81.5461 194.41 81.6677 193.923 81.9963C193.436 82.325 193.1 82.8337 192.988 83.4106C192.876 83.9875 192.997 84.5853 193.326 85.0726C193.654 85.5598 194.162 85.8966 194.739 86.0088L241.202 95.0496C241.775 95.1533 242.366 95.0269 242.846 94.6979C243.327 94.3689 243.659 93.8638 243.77 93.2918C243.881 92.7198 243.762 92.127 243.44 91.6418C243.117 91.1565 242.617 90.8179 242.047 90.6991Z" fill="#CCCCCC"/>
<path d="M249.588 99.7886L194.157 89.003C193.87 88.9431 193.574 88.941 193.286 88.9967C192.998 89.0523 192.724 89.1646 192.48 89.3271C192.236 89.4896 192.026 89.6991 191.864 89.9432C191.701 90.1874 191.588 90.4615 191.532 90.7496C191.476 91.0377 191.478 91.3341 191.538 91.6215C191.597 91.9089 191.713 92.1816 191.879 92.4238C192.044 92.6661 192.256 92.873 192.502 93.0325C192.749 93.1921 193.024 93.3012 193.312 93.3534L248.743 104.139C249.03 104.199 249.326 104.201 249.614 104.145C249.902 104.09 250.176 103.977 250.42 103.815C250.664 103.652 250.874 103.443 251.037 103.199C251.199 102.954 251.312 102.68 251.368 102.392C251.424 102.104 251.422 101.808 251.362 101.52C251.303 101.233 251.187 100.96 251.022 100.718C250.856 100.476 250.644 100.269 250.398 100.109C250.152 99.9498 249.877 99.8408 249.588 99.7886Z" fill="#CCCCCC"/>
<path d="M234.811 127.96L188.346 118.919C187.77 118.807 187.261 118.47 186.933 117.983C186.604 117.496 186.483 116.898 186.595 116.321C186.707 115.744 187.043 115.235 187.53 114.907C188.017 114.578 188.614 114.456 189.191 114.568L235.657 123.61C236.233 123.722 236.742 124.059 237.07 124.546C237.398 125.033 237.52 125.631 237.408 126.208C237.296 126.785 236.96 127.294 236.473 127.623C235.986 127.951 235.388 128.073 234.812 127.961L234.811 127.96Z" fill="#CCCCCC"/>
<path d="M242.351 137.049L186.92 126.263C186.343 126.151 185.835 125.814 185.507 125.327C185.178 124.84 185.056 124.242 185.169 123.665C185.281 123.088 185.617 122.579 186.104 122.25C186.591 121.922 187.188 121.8 187.765 121.912L243.196 132.698C243.773 132.81 244.281 133.147 244.61 133.634C244.938 134.122 245.06 134.719 244.948 135.296C244.836 135.873 244.499 136.382 244.012 136.711C243.525 137.039 242.928 137.161 242.351 137.049Z" fill="#CCCCCC"/>
<path d="M179.995 58.5229C184.239 59.3487 188.347 56.5752 189.172 52.328C189.996 48.0809 187.225 43.9685 182.981 43.1427C178.738 42.3169 174.629 45.0904 173.805 49.3376C172.98 53.5847 175.752 57.6971 179.995 58.5229Z" fill="#F7CD29"/>
<mask id="mask1_1909_36380" style="mask-type:alpha" maskUnits="userSpaceOnUse" x="175" y="45" width="12" height="12">
<rect width="9.026" height="8.99867" transform="matrix(0.966635 0.25754 -0.260102 0.96522 178.207 45.2451)" fill="#D9D9D9"/>
</mask>
<g mask="url(#mask1_1909_36380)">
<path d="M178.681 52.7413L178.309 52.0991L180.891 50.6148L179.401 48.0457L180.046 47.6747L181.536 50.2437L184.118 48.7595L184.49 49.4017L181.909 50.886L183.398 53.455L182.753 53.8261L181.263 51.2571L178.681 52.7413Z" fill="white"/>
</g>
<path d="M183.571 85.3905C183.375 86.4006 182.982 87.3622 182.415 88.2203C181.848 89.0784 181.118 89.8164 180.266 90.3919C179.414 90.9674 178.457 91.3693 177.449 91.5746C176.442 91.7799 175.404 91.7846 174.395 91.5883C174.329 91.5768 174.263 91.5613 174.199 91.5419C172.696 91.2091 171.324 90.4401 170.255 89.3309C169.186 88.2218 168.468 86.8218 168.19 85.3063C167.912 83.7907 168.087 82.2269 168.693 80.8104C169.299 79.3939 170.308 78.1878 171.596 77.3429C172.883 76.4979 174.391 76.0518 175.93 76.0602C177.47 76.0686 178.973 76.5313 180.251 77.3902C181.529 78.2492 182.526 79.4664 183.116 80.8894C183.707 82.3124 183.865 83.8781 183.571 85.3905Z" fill="#F7CD29"/>
<path d="M167.213 124.341C171.457 125.167 175.566 122.394 176.39 118.146C177.215 113.899 174.443 109.787 170.2 108.961C165.956 108.135 161.848 110.909 161.023 115.156C160.198 119.403 162.97 123.515 167.213 124.341Z" fill="#F7CD29"/>
<path d="M284.384 46.4269L268.589 43.3532C267.436 43.1288 266.419 42.4551 265.762 41.4804C265.105 40.5057 264.862 39.3097 265.086 38.1557L267.353 26.4799C267.363 26.4288 267.387 26.3815 267.423 26.3435C267.458 26.3055 267.504 26.2783 267.554 26.265C267.605 26.2517 267.658 26.2529 267.707 26.2683C267.757 26.2838 267.801 26.313 267.835 26.3525L284.648 45.9735C284.685 46.0172 284.708 46.0714 284.713 46.1287C284.718 46.186 284.705 46.2434 284.677 46.2931C284.648 46.3428 284.604 46.3823 284.552 46.406C284.499 46.4298 284.441 46.4367 284.385 46.4258L284.384 46.4269Z" fill="#CCCCCC"/>
<path d="M190.762 163.174C190.275 163.972 189.492 164.544 188.584 164.765C187.677 164.985 186.719 164.835 185.922 164.348L144.834 139.263C144.036 138.776 143.465 137.992 143.245 137.083C143.025 136.175 143.175 135.216 143.661 134.418C144.148 133.62 144.931 133.048 145.838 132.828C146.746 132.608 147.704 132.757 148.501 133.244L189.589 158.33C190.386 158.816 190.957 159.6 191.177 160.509C191.397 161.417 191.248 162.376 190.762 163.174Z" fill="#3F3D56"/>
<path d="M149.674 138.092C146.772 142.853 142.526 146.646 137.47 148.992C132.415 151.337 126.779 152.13 121.273 151.269C115.768 150.408 110.642 147.932 106.542 144.155C102.443 140.378 99.5544 135.469 98.2422 130.048C96.9301 124.628 97.2533 118.94 99.1708 113.704C101.088 108.467 104.514 103.917 109.015 100.63C113.516 97.3418 118.89 95.4639 124.457 95.2331C130.024 95.0024 135.534 96.4292 140.291 99.3332C143.45 101.261 146.198 103.794 148.379 106.785C150.56 109.776 152.131 113.168 153.002 116.767C153.874 120.366 154.028 124.102 153.457 127.761C152.886 131.42 151.6 134.93 149.674 138.092ZM107.584 112.392C105.408 115.964 104.339 120.1 104.512 124.28C104.685 128.459 106.092 132.493 108.555 135.872C111.019 139.251 114.428 141.823 118.352 143.262C122.275 144.702 126.538 144.944 130.599 143.959C134.66 142.974 138.339 140.806 141.169 137.728C143.999 134.651 145.854 130.802 146.499 126.669C147.144 122.537 146.551 118.305 144.793 114.51C143.035 110.715 140.193 107.527 136.625 105.349C131.841 102.428 126.094 101.53 120.647 102.851C115.201 104.171 110.502 107.604 107.584 112.392Z" fill="#3F3D56"/>
<path d="M118.173 143.858C129.62 147.803 142.095 141.713 146.036 130.255C149.977 118.798 143.893 106.311 132.446 102.366C120.999 98.4209 108.525 104.511 104.583 115.969C100.642 127.426 106.726 139.913 118.173 143.858Z" fill="#F7CD29"/>
</g>
<defs>
<clipPath id="clip0_1909_36380">
<rect width="288" height="176" fill="white"/>
</clipPath>
</defs>
</svg>
