<svg width="627" height="465" viewBox="0 0 627 465" fill="none" xmlns="http://www.w3.org/2000/svg">
<path fill-rule="evenodd" clip-rule="evenodd" d="M31.6699 62.1373H274.212V53.1172H31.6699V62.1373Z" fill="#D2D2D2"/>
<path fill-rule="evenodd" clip-rule="evenodd" d="M65.7461 84.1882H75.7685V61.1367H65.7461V84.1882Z" fill="#B7B7B7"/>
<path fill-rule="evenodd" clip-rule="evenodd" d="M231.115 84.1882H241.138V61.1367H231.115V84.1882Z" fill="#202020"/>
<path fill-rule="evenodd" clip-rule="evenodd" d="M219.088 53.1187H254.166V0H219.088V53.1187Z" fill="black"/>
<path fill-rule="evenodd" clip-rule="evenodd" d="M236.126 6.47525V6.01172C230.591 6.01172 226.104 10.4977 226.104 16.0341C226.104 21.5696 230.591 26.0556 236.126 26.0565C241.662 26.0556 246.148 21.5696 246.148 16.0341C246.148 10.4977 241.662 6.01172 236.126 6.01172V6.93877C238.64 6.93877 240.91 7.95575 242.557 9.60221C244.204 11.2496 245.221 13.5209 245.221 16.0341C245.221 18.5474 244.204 20.8177 242.557 22.4651C240.91 24.1116 238.64 25.1285 236.126 25.1295C233.613 25.1285 231.342 24.1116 229.695 22.4651C228.048 20.8177 227.031 18.5474 227.031 16.0341C227.031 13.5209 228.048 11.2496 229.695 9.60221C231.342 7.95575 233.613 6.93877 236.126 6.93877V6.47525Z" fill="#333333"/>
<path fill-rule="evenodd" clip-rule="evenodd" d="M236.126 10.0234C233.358 10.0234 231.115 12.267 231.115 15.035C231.115 17.8023 233.358 20.0458 236.126 20.0458C238.894 20.0458 241.138 17.8023 241.138 15.035C241.138 12.267 238.894 10.0234 236.126 10.0234Z" fill="#333333"/>
<path fill-rule="evenodd" clip-rule="evenodd" d="M236.126 29.5299V29.0664C230.591 29.0664 226.104 33.5531 226.104 39.0883C226.104 44.6235 230.591 49.1103 236.126 49.1112C241.662 49.1103 246.148 44.6235 246.148 39.0883C246.148 33.5531 241.662 29.0664 236.126 29.0664V29.9934C238.64 29.9934 240.91 31.0104 242.557 32.6577C244.204 34.305 245.221 36.5752 245.221 39.0883C245.221 41.6015 244.204 43.8727 242.557 45.52C240.91 47.1663 238.64 48.1833 236.126 48.1842C233.613 48.1833 231.342 47.1663 229.695 45.52C228.048 43.8727 227.031 41.6015 227.031 39.0883C227.031 36.5752 228.048 34.305 229.695 32.6577C231.342 31.0104 233.613 29.9934 236.126 29.9934V29.5299Z" fill="#333333"/>
<path fill-rule="evenodd" clip-rule="evenodd" d="M236.126 33.0742C233.358 33.0742 231.115 35.318 231.115 38.0854C231.115 40.8537 233.358 43.0966 236.126 43.0966C238.894 43.0966 241.138 40.8537 241.138 38.0854C241.138 35.318 238.894 33.0742 236.126 33.0742Z" fill="#333333"/>
<path fill-rule="evenodd" clip-rule="evenodd" d="M57.7266 137.307H73.7624V73.1641H57.7266V137.307Z" fill="#FCECBA"/>
<path fill-rule="evenodd" clip-rule="evenodd" d="M61.7363 129.289H67.7498V80.1797H61.7363V129.289Z" fill="#FDF6DD"/>
<path fill-rule="evenodd" clip-rule="evenodd" d="M73.7637 137.307H89.7995V73.1641H73.7637V137.307Z" fill="#FCECBA"/>
<path fill-rule="evenodd" clip-rule="evenodd" d="M76.7695 129.289H82.783V80.1797H76.7695V129.289Z" fill="#FDF6DD"/>
<path fill-rule="evenodd" clip-rule="evenodd" d="M88.7969 72.8757L100.276 137.306L115.857 134.587L104.379 70.1562L88.7969 72.8757Z" fill="#FCECBA"/>
<path fill-rule="evenodd" clip-rule="evenodd" d="M94.8105 80.3482L103.867 129.288L110.846 128.115L101.79 79.1758L94.8105 80.3482Z" fill="#FDF6DD"/>
<path fill-rule="evenodd" clip-rule="evenodd" d="M72.7617 137.307H73.764V73.1641H72.7617V137.307Z" fill="#202020"/>
<path fill-rule="evenodd" clip-rule="evenodd" d="M158.432 99.3064L157.024 103.293C156.682 104.263 157.556 105.234 158.772 105.234H173.167C174.383 105.234 175.257 104.263 174.915 103.293L173.506 99.3064C173.278 98.6618 172.567 98.2188 171.758 98.2188H160.18C159.372 98.2188 158.66 98.6618 158.432 99.3064Z" fill="#202020"/>
<path fill-rule="evenodd" clip-rule="evenodd" d="M136.904 107.242H145.924V102.23H136.904V107.242Z" fill="#202020"/>
<path fill-rule="evenodd" clip-rule="evenodd" d="M129.889 107.74V133.803C129.889 135.739 131.536 137.308 133.567 137.308H184.34C186.372 137.308 188.019 135.739 188.019 133.803V107.74C188.019 105.804 186.372 104.234 184.34 104.234H133.567C131.536 104.234 129.889 105.804 129.889 107.74Z" fill="#333333"/>
<path fill-rule="evenodd" clip-rule="evenodd" d="M132.895 107.74V133.803C132.895 135.739 134.636 137.308 136.784 137.308H145.041C147.189 137.308 148.93 135.739 148.93 133.803V107.74C148.93 105.804 147.189 104.234 145.041 104.234H136.784C134.636 104.234 132.895 105.804 132.895 107.74Z" fill="#444454"/>
<path fill-rule="evenodd" clip-rule="evenodd" d="M129.889 107.74V133.803C129.889 135.739 131.63 137.308 133.778 137.308H142.035C144.183 137.308 145.925 135.739 145.925 133.803V107.74C145.925 105.804 144.183 104.234 142.035 104.234H133.778C131.63 104.234 129.889 105.804 129.889 107.74Z" fill="#B7B7B7"/>
<path fill-rule="evenodd" clip-rule="evenodd" d="M165.97 108.242C157.667 108.242 150.936 114.973 150.936 123.276C150.936 131.579 157.667 138.309 165.97 138.309C174.272 138.309 181.003 131.579 181.003 123.276C181.003 114.973 174.272 108.242 165.97 108.242Z" fill="#444454"/>
<path fill-rule="evenodd" clip-rule="evenodd" d="M165.468 108.242C157.995 108.242 151.938 114.3 151.938 121.773C151.938 129.246 157.995 135.303 165.468 135.303C172.94 135.303 178.998 129.246 178.998 121.773C178.998 114.3 172.94 108.242 165.468 108.242Z" fill="#B7B7B7"/>
<path fill-rule="evenodd" clip-rule="evenodd" d="M166.471 112.705V112.25C160.658 112.25 155.947 116.962 155.947 122.774C155.947 128.586 160.658 133.297 166.471 133.297C172.283 133.297 176.994 128.586 176.994 122.774C176.994 116.962 172.283 112.25 166.471 112.25V113.161C169.127 113.161 171.527 114.236 173.268 115.976C175.009 117.718 176.083 120.118 176.083 122.774C176.083 125.43 175.009 127.83 173.268 129.571C171.527 131.311 169.127 132.386 166.471 132.386C163.815 132.386 161.415 131.311 159.674 129.571C157.934 127.83 156.858 125.43 156.858 122.774C156.858 120.118 157.934 117.718 159.674 115.976C161.415 114.236 163.815 113.161 166.471 113.161V112.705Z" fill="#444454"/>
<path fill-rule="evenodd" clip-rule="evenodd" d="M180.501 133.297C180.224 133.297 180 133.521 180 133.798C180 134.075 180.224 134.299 180.501 134.299C180.778 134.299 181.002 134.075 181.002 133.798C181.002 133.521 180.778 133.297 180.501 133.297Z" fill="#202020"/>
<path fill-rule="evenodd" clip-rule="evenodd" d="M186.014 131.294H188.018V108.242H186.014V131.294Z" fill="#444454"/>
<path fill-rule="evenodd" clip-rule="evenodd" d="M130.891 108.242V131.294H138.25C139.168 131.294 139.911 130.484 139.911 129.484V110.052C139.911 109.053 139.168 108.242 138.25 108.242H130.891Z" fill="#202020"/>
<path fill-rule="evenodd" clip-rule="evenodd" d="M31.6699 147.329H274.212V138.309H31.6699V147.329Z" fill="#D2D2D2"/>
<path fill-rule="evenodd" clip-rule="evenodd" d="M65.7461 171.384H75.7685V148.332H65.7461V171.384Z" fill="#B7B7B7"/>
<path fill-rule="evenodd" clip-rule="evenodd" d="M231.115 171.384H241.138V148.332H231.115V171.384Z" fill="#202020"/>
<path fill-rule="evenodd" clip-rule="evenodd" d="M416.977 288.024C413.955 291.618 413.523 308.691 413.523 308.691C413.523 308.691 422.59 293.865 441.586 290.72L427.555 282.633L416.977 288.024Z" fill="#EAAD06"/>
<path fill-rule="evenodd" clip-rule="evenodd" d="M522.767 381.854C522.767 381.854 522.326 314.548 516.593 281.332C510.861 248.117 487.929 220.8 479.109 213.043C470.29 205.285 456.619 190.426 456.619 190.426C456.619 190.426 460.588 221.02 467.865 229.761C475.14 238.501 477.028 238.245 476.905 251.613C476.781 264.98 476.905 281.332 494.103 294.006C511.301 306.681 513.948 312.8 516.593 335.964C519.239 359.127 519.68 381.854 519.68 381.854H522.767Z" fill="#EAAD06"/>
<path fill-rule="evenodd" clip-rule="evenodd" d="M581.281 223.5C584.304 226.854 575.238 246.552 575.238 246.552C575.238 246.552 570.92 232.721 561.854 227.273L567.034 223.5H581.281Z" fill="#EAAD06"/>
<path fill-rule="evenodd" clip-rule="evenodd" d="M522.768 382.856C522.768 382.856 526.267 321.85 541.576 302.401C556.886 282.95 577.882 277.202 588.818 277.645C599.753 278.086 625.998 294.001 625.998 294.001C625.998 294.001 594.941 299.748 588.381 301.958C581.819 304.168 574.383 326.272 565.197 332.019C556.011 337.766 533.703 342.628 531.516 346.607C529.328 350.586 525.392 382.856 525.392 382.856H522.768Z" fill="#F7CD29"/>
<path fill-rule="evenodd" clip-rule="evenodd" d="M515.278 382.857C515.278 382.857 513.973 333.863 508.752 323.317C503.532 312.773 469.602 298.495 456.986 296.738C444.371 294.98 422.62 287.071 416.529 287.071C416.529 287.071 433.142 261.793 460.031 261.587C494.832 261.321 510.058 308.681 512.667 320.614C515.278 332.545 518.758 382.857 518.758 382.857H515.278Z" fill="#F7CD29"/>
<path fill-rule="evenodd" clip-rule="evenodd" d="M518.896 382.857C518.896 382.857 522.348 325.071 521.917 314.484C521.485 303.898 518.033 287.135 518.896 269.491C519.759 251.846 537.02 216.556 548.24 213.028C559.459 209.499 581.899 224.055 581.899 224.055C581.899 224.055 574.563 225.82 567.658 232.437C560.754 239.053 564.907 276.067 555.711 288.218C546.513 300.368 529.684 325.489 527.527 330.353C525.369 335.217 521.917 382.857 521.917 382.857H518.896Z" fill="#F7CD29"/>
<path fill-rule="evenodd" clip-rule="evenodd" d="M430.57 270.858C430.572 270.858 431.224 270.83 432.412 270.83C440.189 270.827 470.788 272.067 489.176 290.605C499.792 301.303 506.633 311.841 510.82 319.703C512.913 323.633 514.343 326.895 515.249 329.174C515.703 330.314 516.025 331.207 516.234 331.815C516.443 332.423 516.537 332.743 516.538 332.744L516.753 332.682C516.75 332.67 510.603 311.881 489.336 290.447C470.856 271.829 440.211 270.608 432.412 270.605C431.22 270.605 430.561 270.634 430.561 270.635L430.57 270.858Z" fill="#D79A00"/>
<path fill-rule="evenodd" clip-rule="evenodd" d="M520.986 317.711C520.987 317.708 521.256 316.545 521.743 314.486C523.449 307.276 527.825 289.11 532.646 271.61C535.056 262.859 537.579 254.275 539.934 247.312C542.287 240.35 544.482 235.002 546.208 232.752C550.186 227.564 555.603 223.547 560.024 220.828C562.234 219.468 564.196 218.433 565.604 217.739C566.309 217.392 566.875 217.129 567.265 216.954C567.654 216.779 567.866 216.691 567.867 216.691L567.777 216.484C567.77 216.489 554.034 222.178 546.025 232.617C544.009 235.25 541.44 241.861 538.697 250.324C530.472 275.702 520.763 317.659 520.762 317.661L520.986 317.711Z" fill="#D79A00"/>
<path fill-rule="evenodd" clip-rule="evenodd" d="M529.983 341.764C529.984 341.762 530.253 341.259 530.762 340.353C534.325 334.008 549.614 307.991 565.606 298.09C583.539 286.977 612.85 286.864 613.939 286.865H613.97L613.971 286.642L613.939 286.641C612.833 286.643 583.51 286.74 565.487 297.898C547.12 309.282 529.79 341.651 529.783 341.658L529.983 341.764Z" fill="#D79A00"/>
<path fill-rule="evenodd" clip-rule="evenodd" d="M515.749 320.677C515.748 320.673 505.725 266.494 499.03 248.037C495.67 238.786 484.362 223.897 473.887 211.302C463.414 198.709 453.778 188.423 453.777 188.422L453.611 188.576C453.613 188.578 454.213 189.218 455.28 190.379C462.744 198.497 492.987 232.03 498.816 248.113C502.157 257.317 506.337 275.474 509.678 291.322C511.35 299.247 512.812 306.596 513.856 311.964C514.379 314.647 514.796 316.836 515.084 318.354C515.37 319.871 515.527 320.715 515.528 320.718L515.75 320.677" fill="#D79A00"/>
<path fill-rule="evenodd" clip-rule="evenodd" d="M477.666 361.809L483.905 463.035H555.615L561.854 361.809H477.666Z" fill="#272826"/>
<path fill-rule="evenodd" clip-rule="evenodd" d="M525.773 463.035H554.729L560.852 361.809H540.916L525.773 463.035Z" fill="#0F100E"/>
<path fill-rule="evenodd" clip-rule="evenodd" d="M316.305 202.454H592.923V1.00391H316.305V202.454Z" fill="#B7B7B7"/>
<path fill-rule="evenodd" clip-rule="evenodd" d="M324.324 192.431H582.902V10.0234H324.324V192.431Z" fill="#D2D2D2"/>
<path fill-rule="evenodd" clip-rule="evenodd" d="M336.35 72.1622H368.421V24.0547H336.35V72.1622Z" fill="#FCECBA"/>
<path fill-rule="evenodd" clip-rule="evenodd" d="M379.447 96.2143H411.519V23.0508H379.447V96.2143Z" fill="#FCECBA"/>
<path fill-rule="evenodd" clip-rule="evenodd" d="M405.583 45.1016L403.5 95.2136L437.576 93.0009L405.583 45.1016Z" fill="#D79A00"/>
<path fill-rule="evenodd" clip-rule="evenodd" d="M405.504 93.2091H437.576V45.1016H405.504V93.2091Z" fill="#FDF6DD"/>
<path fill-rule="evenodd" clip-rule="evenodd" d="M359.401 25.0553H349.539L349.379 24.065L359.078 23.0508L359.401 25.0553Z" fill="#BDBCD4"/>
<path fill-rule="evenodd" clip-rule="evenodd" d="M349.702 27.0592L349.379 25.0547H359.242L359.401 26.0446L349.702 27.0592Z" fill="#CACADC"/>
<path fill-rule="evenodd" clip-rule="evenodd" d="M386.462 23.0519H383.001L382.453 19.4238L385.857 19.043L386.462 23.0519Z" fill="#BDBCD4"/>
<path fill-rule="evenodd" clip-rule="evenodd" d="M383.058 29.0636L382.453 25.0547H385.914L386.462 28.6835L383.058 29.0636Z" fill="#CACADC"/>
<path fill-rule="evenodd" clip-rule="evenodd" d="M422.472 45.1027H419.537L419.61 41.0938L422.544 41.1516L422.472 45.1027Z" fill="#BDBCD4"/>
<path fill-rule="evenodd" clip-rule="evenodd" d="M422.47 49.1105L419.537 49.0526L419.609 45.1016H422.544L422.47 49.1105Z" fill="#CACADC"/>
<path fill-rule="evenodd" clip-rule="evenodd" d="M406.972 23.0497H403.5L404.186 20.043L407.509 20.6963L406.972 23.0497Z" fill="#BDBCD4"/>
<path fill-rule="evenodd" clip-rule="evenodd" d="M406.823 28.0614L403.5 27.4074L404.037 25.0547H407.509L406.823 28.0614Z" fill="#CACADC"/>
<path fill-rule="evenodd" clip-rule="evenodd" d="M468.327 57.1289L464.637 134.407L564.861 137.308L468.327 57.1289Z" fill="#D79A00"/>
<path fill-rule="evenodd" clip-rule="evenodd" d="M468.033 57.1289L462.633 129.543L565.474 137.308L570.875 64.8953L468.033 57.1289Z" fill="#F5EEF2"/>
<path fill-rule="evenodd" clip-rule="evenodd" d="M518.682 61.1362L515.752 60.8641L515.825 56.125L518.759 56.1937L518.682 61.1362Z" fill="#BDBCD4"/>
<path fill-rule="evenodd" clip-rule="evenodd" d="M518.69 65.1457L515.752 65.088L515.824 61.1367L518.759 61.3653L518.69 65.1457Z" fill="#CACADC"/>
<path fill-rule="evenodd" clip-rule="evenodd" d="M490.308 69.1621C484.569 68.9431 483.152 74.958 482.438 79.1867C481.51 84.6801 480.805 90.8773 484.239 95.7682C487.065 99.7941 492.062 100.381 495.855 97.111C500.019 93.5185 500.598 86.6592 500.713 81.6464C500.825 76.7653 499.189 69.8135 493.029 69.1888C492.432 69.1291 492.437 70.019 493.029 70.0787C499.781 70.7639 500.099 79.5845 499.592 84.3971C499.042 89.6163 497.846 97.5497 491.03 98.3667C483.852 99.2272 482.338 89.4891 482.657 84.6623C482.956 80.1496 483.461 69.7912 490.308 70.052C490.909 70.0751 490.908 69.1852 490.308 69.1621Z" fill="#D79A00"/>
<path fill-rule="evenodd" clip-rule="evenodd" d="M493.883 69.5762C494.15 75.5843 493.421 81.5296 492.879 87.4915C492.326 93.5866 491.939 99.6982 491.698 105.819C491.676 106.379 492.44 106.379 492.462 105.819C492.703 99.6982 493.09 93.5866 493.643 87.4915C494.185 81.5296 494.914 75.5843 494.647 69.5762C494.622 69.018 493.858 69.0145 493.883 69.5762Z" fill="#D79A00"/>
<path fill-rule="evenodd" clip-rule="evenodd" d="M480.088 79.907C487.147 80.4613 494.217 80.8851 501.298 81.1797C501.86 81.2031 501.859 80.4737 501.298 80.4504C494.217 80.1557 487.147 79.732 480.088 79.1777C479.529 79.1339 479.532 79.8633 480.088 79.907Z" fill="#D79A00"/>
<path fill-rule="evenodd" clip-rule="evenodd" d="M481.099 89.7373C487.489 90.008 493.887 90.1633 500.291 90.2014C500.861 90.2052 500.862 89.668 500.291 89.6642C493.887 89.626 487.489 89.4708 481.099 89.2C480.531 89.1758 480.533 89.7131 481.099 89.7373Z" fill="#D79A00"/>
<path fill-rule="evenodd" clip-rule="evenodd" d="M485.835 94.6675C485.401 100.432 483.915 106.057 482.692 111.659C482.562 112.254 483.382 112.507 483.511 111.912C484.754 106.222 486.244 100.524 486.685 94.6675C486.731 94.0573 485.881 94.0602 485.835 94.6675Z" fill="#D79A00"/>
<path fill-rule="evenodd" clip-rule="evenodd" d="M494.94 97.0678C495.647 97.4635 495.304 100.498 495.328 101.283C495.372 102.724 495.416 104.165 495.46 105.605C495.543 108.343 495.627 111.081 495.71 113.818C495.728 114.4 496.727 114.402 496.709 113.818C496.599 110.216 496.49 106.613 496.38 103.012C496.327 101.297 496.391 99.5321 496.221 97.8249C496.143 97.0388 496.185 96.7019 495.445 96.2853C494.896 95.9773 494.395 96.7607 494.94 97.0678Z" fill="#D79A00"/>
<path fill-rule="evenodd" clip-rule="evenodd" d="M478.995 112.082C486.052 113.051 493.155 113.424 500.282 113.183C500.861 113.164 500.864 112.306 500.282 112.326C493.237 112.564 486.212 112.213 479.236 111.255C478.667 111.177 478.421 112.004 478.995 112.082Z" fill="#D79A00"/>
<path fill-rule="evenodd" clip-rule="evenodd" d="M483.272 110.247C479.798 110.458 476.368 110.879 472.959 111.514C472.425 111.614 472.651 112.34 473.184 112.241C476.516 111.62 479.875 111.207 483.272 111.001C483.812 110.968 483.817 110.214 483.272 110.247Z" fill="#D79A00"/>
<path fill-rule="evenodd" clip-rule="evenodd" d="M496.144 110.969C498.878 111.255 501.553 112.761 504.182 113.476C506.799 114.188 509.489 114.716 512.172 115.245C512.747 115.358 512.993 114.665 512.417 114.551C509.466 113.969 506.506 113.388 503.647 112.565C501.152 111.846 498.805 110.528 496.144 110.25C495.559 110.189 495.564 110.909 496.144 110.969Z" fill="#D79A00"/>
<path fill-rule="evenodd" clip-rule="evenodd" d="M514.002 71.5845C513.248 82.3975 511.826 93.1159 509.749 103.682C509.641 104.236 510.359 104.473 510.468 103.917C512.561 93.2742 513.989 82.4754 514.748 71.5845C514.787 71.0174 514.042 71.02 514.002 71.5845Z" fill="#D79A00"/>
<path fill-rule="evenodd" clip-rule="evenodd" d="M512.777 84.6334C514.178 87.5241 516.636 90.6646 520.875 91.0864C522.762 91.2748 525.287 91.3221 526.983 90.5464C528.94 89.6517 530.515 87.9327 531.71 86.4692C532.039 86.0673 531.222 85.6957 530.894 86.0961C529.956 87.2456 528.875 88.3109 527.575 89.224C525.939 90.3728 523.724 90.505 521.598 90.3971C517.456 90.1873 515.039 87.2249 513.688 84.4369C513.475 83.9966 512.561 84.1879 512.777 84.6334Z" fill="#D79A00"/>
<path fill-rule="evenodd" clip-rule="evenodd" d="M529.681 73.5852C530.079 84.6739 529.779 95.7661 528.783 106.822C528.733 107.381 529.668 107.378 529.718 106.822C530.714 95.7661 531.013 84.6739 530.615 73.5852C530.596 73.025 529.661 73.0224 529.681 73.5852Z" fill="#D79A00"/>
<path fill-rule="evenodd" clip-rule="evenodd" d="M516.345 79.9046C517.116 80.0452 517.887 80.1858 518.657 80.3264C518.921 80.3751 519.418 80.3586 519.621 80.5022C519.976 80.5045 519.964 80.7019 519.584 81.0946C519.425 81.1679 519.26 81.2203 519.088 81.2524C517.816 81.5464 516.229 81.3624 515.385 80.3279C515.077 79.9494 514.533 80.482 514.838 80.8568C515.915 82.1777 518.779 82.6729 520.215 81.5913C520.694 81.23 521.027 80.4588 520.474 80.0003C520.123 79.7093 519.475 79.7168 519.055 79.6405C518.221 79.4879 517.387 79.3353 516.552 79.1835C516.065 79.0937 515.856 79.8148 516.345 79.9046Z" fill="#D79A00"/>
<path fill-rule="evenodd" clip-rule="evenodd" d="M529.404 80.2145C528.346 80.2161 527.234 80.1194 526.181 80.2417C525.638 80.3048 525.032 80.5214 524.845 81.108C524.281 82.8886 527.1 83.1372 528.152 83.1859C528.656 83.2091 528.655 82.4099 528.152 82.3867C527.622 82.3619 527.083 82.318 526.569 82.1813C526.106 82.0582 525.942 82.0934 525.908 81.5356C525.877 81.0081 525.905 81.0616 526.391 81.0241C527.383 80.9465 528.408 81.0153 529.404 81.0137C529.908 81.0121 529.91 80.2129 529.404 80.2145Z" fill="#D79A00"/>
<path fill-rule="evenodd" clip-rule="evenodd" d="M515.754 69.537C515.928 71.2824 516.007 73.0301 515.99 74.7851C515.985 75.2979 516.747 75.2979 516.752 74.7851C516.769 73.0301 516.69 71.2824 516.516 69.537C516.466 69.0321 515.703 69.0266 515.754 69.537Z" fill="#D79A00"/>
<path fill-rule="evenodd" clip-rule="evenodd" d="M515.682 76.1603C515.961 75.7083 519.09 75.8668 519.688 75.8749C521.217 75.896 522.74 76.016 524.233 76.2343C526.287 76.534 528.234 77.0301 530.339 77.1706C530.934 77.2104 530.93 76.588 530.339 76.5489C527.006 76.3269 523.925 75.4024 520.544 75.2749C519.068 75.2196 515.502 74.8291 514.785 75.9949C514.557 76.3648 515.457 76.5259 515.682 76.1603Z" fill="#D79A00"/>
<path fill-rule="evenodd" clip-rule="evenodd" d="M528.615 76.8969C529.103 75.1654 529.489 73.4183 529.776 71.6495C529.856 71.1591 529.034 70.947 528.953 71.4429C528.667 73.211 528.28 74.958 527.793 76.6895C527.656 77.1752 528.478 77.3826 528.615 76.8969Z" fill="#D79A00"/>
<path fill-rule="evenodd" clip-rule="evenodd" d="M523.091 83.5802C522.953 85.4679 522.805 87.3556 522.644 89.2417C522.528 90.6034 522.805 93.4039 521.186 93.0745C520.761 92.9876 520.577 93.7775 521.006 93.8643C522.168 94.1011 522.727 94.8377 522.982 93.0114C523.413 89.9176 523.538 86.7034 523.767 83.5802C523.805 83.055 523.129 83.0583 523.091 83.5802Z" fill="#D79A00"/>
<path fill-rule="evenodd" clip-rule="evenodd" d="M515.755 88.6201C516.13 92.1619 515.274 96.5549 516.5 99.8984C517.41 102.378 519.477 102.138 521.41 102.226C521.884 102.248 521.884 101.354 521.41 101.333C520.37 101.285 519.452 101.307 518.468 100.855C516.887 100.128 516.81 98.0958 516.723 96.2548C516.603 93.7036 516.761 91.1641 516.492 88.6201C516.433 88.0573 515.696 88.0502 515.755 88.6201Z" fill="#D79A00"/>
<path fill-rule="evenodd" clip-rule="evenodd" d="M526.946 89.5312C526.531 91.9877 526.032 94.4239 525.412 96.8309C525.15 97.8467 524.908 98.8937 524.557 99.8783C523.601 102.56 521.39 102.727 519.397 101.504C518.919 101.212 518.488 102.003 518.966 102.297C520.972 103.528 523.422 103.808 524.813 101.48C525.706 99.9875 526.022 97.9577 526.438 96.272C526.968 94.1257 527.402 91.9583 527.77 89.7744C527.868 89.1972 527.045 88.9494 526.946 89.5312Z" fill="#D79A00"/>
<path fill-rule="evenodd" clip-rule="evenodd" d="M506.834 101.99C509.878 105.821 512.987 109.715 517.143 112.192C517.602 112.466 518.014 111.711 517.555 111.437C513.463 108.998 510.407 105.143 507.411 101.371C507.07 100.942 506.495 101.563 506.834 101.99Z" fill="#D79A00"/>
<path fill-rule="evenodd" clip-rule="evenodd" d="M532.237 106.267C526.955 108.022 521.686 109.817 516.962 112.516C516.474 112.794 516.934 113.468 517.426 113.187C522.086 110.525 527.27 108.747 532.482 107.017C533.026 106.836 532.789 106.084 532.237 106.267Z" fill="#D79A00"/>
<path fill-rule="evenodd" clip-rule="evenodd" d="M483.674 82.1314C483.531 81.2775 483.145 80.6783 482.487 80.232C482.292 80.0998 482.075 80.2342 482.003 80.454C481.302 82.6252 481.853 84.8275 482.469 86.9385C482.601 87.39 483.236 87.1969 483.104 86.741C482.524 84.7525 481.975 82.7039 482.639 80.6508C482.477 80.7251 482.316 80.7993 482.155 80.8728C482.647 81.207 482.934 81.6993 483.039 82.3289C483.118 82.7975 483.752 82.5992 483.674 82.1314Z" fill="#D79A00"/>
<path fill-rule="evenodd" clip-rule="evenodd" d="M500.707 83.4687C500.693 82.8752 501.774 81.3029 501.765 82.6543C501.761 83.2486 501.62 83.8344 501.429 84.4024C501.046 85.5329 500.406 86.5759 499.772 87.6111C499.502 88.0513 500.267 88.4426 500.537 88.0024C501.242 86.8518 501.964 85.6747 502.353 84.4071C502.581 83.6593 503.004 82.2917 502.443 81.592C501.352 80.2321 499.799 82.5985 499.819 83.4687C499.832 83.9669 500.719 83.9685 500.707 83.4687Z" fill="#D79A00"/>
<path fill-rule="evenodd" clip-rule="evenodd" d="M488.055 82.0526C489.485 81.9829 490.91 82.0249 492.335 82.1795C492.821 82.2325 492.818 81.3921 492.335 81.3392C490.91 81.1846 489.485 81.1426 488.055 81.2123C487.567 81.2367 487.564 82.077 488.055 82.0526Z" fill="#D79A00"/>
<path fill-rule="evenodd" clip-rule="evenodd" d="M496.108 83.1858C497.178 83.1858 498.246 83.1858 499.315 83.1858C499.849 83.1858 499.85 82.1836 499.315 82.1836C498.246 82.1836 497.178 82.1836 496.108 82.1836C495.574 82.1836 495.573 83.1858 496.108 83.1858Z" fill="#D79A00"/>
<path fill-rule="evenodd" clip-rule="evenodd" d="M493.317 85.681C493.556 87.4259 493.795 89.17 494.034 90.914C494.176 90.7542 494.317 90.5944 494.458 90.4346C493.679 90.1601 492.9 89.8857 492.121 89.6112C491.696 89.4615 491.515 90.2139 491.938 90.3628C492.717 90.6373 493.496 90.9117 494.275 91.1861C494.55 91.2836 494.737 90.9819 494.699 90.7074C494.46 88.9626 494.221 87.2177 493.982 85.4736C493.914 84.9793 493.25 85.1891 493.317 85.681Z" fill="#D79A00"/>
<path fill-rule="evenodd" clip-rule="evenodd" d="M541.237 75.1466C547.301 75.2097 553.363 75.1215 559.42 74.8819C559.991 74.8589 559.994 74.1416 559.42 74.1646C553.363 74.4042 547.301 74.4924 541.237 74.4293C540.664 74.4235 540.663 75.1408 541.237 75.1466Z" fill="#D79A00"/>
<path fill-rule="evenodd" clip-rule="evenodd" d="M541.235 78.7957C547.318 78.5789 553.387 78.7057 559.427 79.1754C559.993 79.2193 559.987 78.7015 559.427 78.6581C553.387 78.1884 547.318 78.0616 541.235 78.2784C540.665 78.2986 540.662 78.8159 541.235 78.7957Z" fill="#D79A00"/>
<path fill-rule="evenodd" clip-rule="evenodd" d="M541.043 83.9902C543.791 85.1788 546.644 86.0124 549.636 86.3648C553.186 86.7825 556.765 86.4829 560.285 87.186C560.854 87.2997 561.096 86.4503 560.526 86.3357C557.616 85.7551 554.686 85.8221 551.734 85.6582C548.168 85.4599 544.761 84.6405 541.5 83.2298C540.972 83.0016 540.511 83.7602 541.043 83.9902Z" fill="#D79A00"/>
<path fill-rule="evenodd" clip-rule="evenodd" d="M542.217 99.2209C545.62 99.1358 549.022 99.121 552.424 99.1746C552.97 99.1839 552.97 98.2594 552.424 98.2502C549.022 98.1965 545.62 98.2113 542.217 98.2964C541.673 98.3093 541.672 99.2338 542.217 99.2209Z" fill="#D79A00"/>
<path fill-rule="evenodd" clip-rule="evenodd" d="M542.22 101.083C545.286 101.463 548.353 101.844 551.419 102.223C551.971 102.292 551.966 101.435 551.419 101.367C548.353 100.987 545.286 100.607 542.22 100.226C541.669 100.159 541.674 101.015 542.22 101.083Z" fill="#D79A00"/>
<path fill-rule="evenodd" clip-rule="evenodd" d="M543.253 105.126C545.938 105.384 548.603 105.753 551.255 106.23C551.835 106.334 552.083 105.477 551.5 105.373C548.767 104.88 546.02 104.503 543.253 104.237C542.664 104.18 542.667 105.07 543.253 105.126Z" fill="#D79A00"/>
<path fill-rule="evenodd" clip-rule="evenodd" d="M540.131 113.077C545.722 114.786 551.484 115.841 557.387 116.257C558 116.301 557.996 115.469 557.387 115.425C551.566 115.015 545.895 113.959 540.385 112.275C539.805 112.098 539.555 112.901 540.131 113.077Z" fill="#D79A00"/>
<path fill-rule="evenodd" clip-rule="evenodd" d="M540.248 119.992C545.649 120.298 551.034 120.722 556.405 121.267C556.991 121.326 556.986 120.6 556.405 120.541C551.034 119.996 545.649 119.572 540.248 119.267C539.656 119.233 539.658 119.959 540.248 119.992Z" fill="#D79A00"/>
<path fill-rule="evenodd" clip-rule="evenodd" d="M501.138 123.951C506.362 123.822 511.593 124.742 516.797 125.033C521.981 125.323 527.176 125.352 532.367 125.159C532.928 125.139 532.93 124.477 532.367 124.498C527.176 124.69 521.981 124.661 516.797 124.371C511.592 124.08 506.366 123.16 501.138 123.29C500.578 123.304 500.575 123.965 501.138 123.951Z" fill="#D79A00"/>
<path fill-rule="evenodd" clip-rule="evenodd" d="M473.044 64.1285C474.772 64.3978 476.504 64.5984 478.246 64.6849C480.223 64.7822 482.232 64.5698 484.169 65.1292C484.683 65.2786 484.902 64.33 484.388 64.1815C482.601 63.6655 480.816 63.7952 478.991 63.7333C477 63.6655 475.019 63.4531 473.044 63.1454C472.521 63.0638 472.527 64.0479 473.044 64.1285Z" fill="#D79A00"/>
<path fill-rule="evenodd" clip-rule="evenodd" d="M269.592 324.727L254.166 327.515L272.921 463.036H283.231L269.592 324.727Z" fill="#0F100E"/>
<path fill-rule="evenodd" clip-rule="evenodd" d="M191.024 329.204L191.02 329.194L175.899 323.723L175.889 323.727L132.895 463.034H143.997L191.024 329.204Z" fill="#B7B7B7"/>
<path fill-rule="evenodd" clip-rule="evenodd" d="M230.112 327.515L214.937 324.727L199.043 463.036H209.186L230.112 327.515Z" fill="#D2D2D2"/>
<path fill-rule="evenodd" clip-rule="evenodd" d="M298.408 323.723L283.23 329.19L325.211 463.034H336.349L298.408 323.723Z" fill="#D2D2D2"/>
<path fill-rule="evenodd" clip-rule="evenodd" d="M312.563 304.511C283.495 291.09 271.343 286.217 253.153 247.425C246.482 233.201 240.713 221.18 235.454 211.023C220.682 180.841 208.264 166.351 187.195 160.922C166.125 155.494 132.091 155.639 122.783 165.671C113.474 175.704 117.139 202.393 120.34 231.268C123.467 259.487 139.164 332.744 165.656 332.744C189.271 332.744 334.513 332.744 334.513 332.744C334.513 332.744 348.99 321.331 312.563 304.511Z" fill="#D2D2D2"/>
<path fill-rule="evenodd" clip-rule="evenodd" d="M184.131 305.953C154.231 295.157 138.085 251.971 126.126 210.237C120.973 192.255 119.487 179.308 119.46 170.383C114.56 182.832 117.6 205.828 120.313 230.421C123.419 258.598 139.012 331.743 165.328 331.743C172.14 331.743 189.145 331.743 209.844 331.743C214.628 325.745 214.03 316.749 184.131 305.953Z" fill="#B7B7B7"/>
<path fill-rule="evenodd" clip-rule="evenodd" d="M313.247 408.914C313.247 408.914 308.287 443.566 308.287 451.719C308.287 459.872 321.909 458.417 330.315 459.582C338.72 460.746 351.763 463.949 361.038 462.784C370.313 461.62 378.766 458.076 377.269 454.921C374.274 448.613 339.396 441.818 337.086 433.083C336.533 430.991 341.715 408.914 341.715 408.914H313.247Z" fill="#F5C2A8"/>
<path fill-rule="evenodd" clip-rule="evenodd" d="M335.755 425.728C337.123 418.55 339.357 408.914 339.357 408.914H311.075C311.075 408.914 309.616 419.232 308.287 429.961C320.453 429.505 329.334 427.803 335.755 425.728Z" fill="#ED9C7B"/>
<path fill-rule="evenodd" clip-rule="evenodd" d="M343.576 422.592C343.576 422.592 369.637 314.277 366.085 293.879C362.534 273.481 283.639 260.582 283.639 260.582H218.361C218.361 260.582 211.063 299.267 231.356 313.499C253.95 329.347 309.103 327.648 309.103 327.648L305.937 422.592C305.937 422.592 324.729 430.151 343.576 422.592Z" fill="#202020"/>
<path fill-rule="evenodd" clip-rule="evenodd" d="M342.364 275.34C317.959 265.377 282.527 259.582 282.527 259.582H217.357C217.357 259.582 210.071 298.211 230.33 312.423C252.887 328.247 307.948 326.551 307.948 326.551V355.797C307.948 355.797 319.36 286.109 342.364 275.34Z" fill="#202020"/>
<path fill-rule="evenodd" clip-rule="evenodd" d="M308.719 437.122C308.719 437.122 305.281 450.786 305.281 462.034H382.355C382.355 462.034 384.205 454.298 371.907 449.578C359.608 444.858 337.625 438.243 336.829 432.969C336.829 432.969 331.991 434.499 331.991 440.715C331.991 440.715 318.685 442.764 315.925 442.387C313.166 442.01 313.142 437.886 308.719 437.122Z" fill="#161715"/>
<path fill-rule="evenodd" clip-rule="evenodd" d="M306.283 413.755C306.305 413.76 317.194 416.929 329.716 416.931C334.196 416.931 338.886 416.525 343.366 415.417L343.165 414.574C338.77 415.662 334.145 416.064 329.716 416.064C323.526 416.064 317.72 415.277 313.465 414.491C311.338 414.098 309.599 413.705 308.393 413.411C307.789 413.263 307.319 413.141 307.001 413.055C306.683 412.97 306.519 412.922 306.518 412.922L306.283 413.755Z" fill="#202020"/>
<path fill-rule="evenodd" clip-rule="evenodd" d="M240.135 270.634C240.136 270.658 240.268 275.061 241.842 280.473C243.417 285.88 246.434 292.319 252.27 296.346C255.213 298.369 261.1 300.745 268.338 303.226C290.036 310.655 323.731 318.848 323.738 318.85L323.843 318.409L323.394 318.376L315.443 423.88L316.344 423.948L324.323 318.06L323.95 317.969C323.947 317.969 323.015 317.742 321.356 317.329C315.549 315.881 300.869 312.154 286.4 307.93C279.165 305.819 271.983 303.582 265.993 301.447C260.008 299.316 255.198 297.269 252.781 295.598C247.203 291.757 244.25 285.52 242.709 280.218C241.938 277.57 241.519 275.16 241.294 273.416C241.181 272.545 241.117 271.838 241.081 271.352C241.063 271.11 241.052 270.921 241.046 270.795C241.039 270.668 241.038 270.606 241.037 270.605L240.135 270.634Z" fill="#202020"/>
<path fill-rule="evenodd" clip-rule="evenodd" d="M249.074 432.467C248.506 426.936 258.302 401.898 258.302 401.898H228.449C228.449 401.898 229.82 426.645 228.398 432.176C226.976 437.707 222.413 445.859 223.185 463.035H263.187C263.187 444.889 249.643 437.999 249.074 432.467Z" fill="#F5C2A8"/>
<path fill-rule="evenodd" clip-rule="evenodd" d="M251.018 436.193L248.16 436.583C246.04 434.646 243.351 432.969 240.39 432.969C237.199 432.969 234.403 434.8 232.3 436.795L227.495 434.955C225.637 440.273 222.538 448.082 223.185 462.034H263.187C263.187 448.274 254.9 441.192 251.018 436.193Z" fill="#161715"/>
<path fill-rule="evenodd" clip-rule="evenodd" d="M229.442 428.645C237.339 429.468 244.459 428.574 250.438 427.027C252.466 417.95 259.179 400.895 259.179 400.895H229.111C229.111 400.895 230.196 420.377 229.442 428.645Z" fill="#ED9C7B"/>
<path fill-rule="evenodd" clip-rule="evenodd" d="M263.303 423.11C263.303 423.11 284.391 314.256 280.821 293.866C277.251 273.476 241.23 260.582 241.23 260.582H175.607C175.607 260.582 167.21 300.893 188.669 313.479C204.372 322.688 223.535 327.622 223.535 327.622V423.11C223.535 423.11 247.351 429.503 263.303 423.11Z" fill="#202020"/>
<path fill-rule="evenodd" clip-rule="evenodd" d="M240.719 259.582H175.594C175.594 259.582 167.261 299.959 188.558 312.566C204.141 321.79 223.158 326.732 223.158 326.732C223.158 326.732 227.882 267.653 274.212 281.185C263.12 267.679 240.719 259.582 240.719 259.582Z" fill="#202020"/>
<path fill-rule="evenodd" clip-rule="evenodd" d="M313.14 196.438C313.14 196.438 321.972 219.089 324.18 220.37C326.388 221.652 378.433 234.785 378.433 234.785C378.433 234.785 378.748 249.84 375.91 254.003C375.91 254.003 316.61 257.527 304.624 254.003C292.638 250.48 282.229 217.488 282.229 217.488L313.14 196.438Z" fill="#F5C2A8"/>
<path fill-rule="evenodd" clip-rule="evenodd" d="M320.314 218.426C317.198 212.481 311.35 196.438 311.35 196.438L282.229 217.652C282.229 217.652 290.952 247.223 301.417 253.565C311.898 242.959 317.414 229.576 320.314 218.426Z" fill="#ED9C7B"/>
<path fill-rule="evenodd" clip-rule="evenodd" d="M323.321 212.996C309.763 234.597 283.715 232.055 283.715 232.055L282.676 261.413C242.661 279.838 173.558 261.413 173.558 261.413L176.71 224.114C150.856 219.031 143.92 200.925 143.92 200.925C143.92 200.925 170.279 148.62 186.31 134.41C201.934 120.558 231.676 128.606 231.676 128.606L266.253 136.018C266.253 136.018 286.747 138.982 296.837 152.641C306.926 166.3 323.321 212.996 323.321 212.996Z" fill="#F7CD29"/>
<path fill-rule="evenodd" clip-rule="evenodd" d="M221.094 158.551C221.094 158.551 228.468 154.464 233.178 154.345C237.889 154.226 244.028 160.414 244.144 162.557C244.26 164.699 234.994 161.129 234.994 161.129C234.994 161.129 233.14 170.768 224.453 173.386L221.094 158.551Z" fill="#ED9C7B"/>
<path fill-rule="evenodd" clip-rule="evenodd" d="M249.739 174.391C248.06 174.391 246.438 173.973 244.916 173.137C240.785 170.871 237.898 165.708 237.195 159.328C236.913 156.772 237.535 154.988 239.043 154.029C243.067 151.471 251.908 156.851 252.903 157.474L251.645 159.517C248.134 157.324 242.297 154.803 240.317 156.062C239.647 156.488 239.394 157.499 239.566 159.062C240.184 164.663 242.61 169.136 246.057 171.026C248.468 172.349 251.25 172.289 254.103 170.852L255.169 173.004C253.332 173.928 251.505 174.391 249.739 174.391Z" fill="#F5EEF2"/>
<path fill-rule="evenodd" clip-rule="evenodd" d="M245.146 150.336C245.146 150.336 245.972 160.9 251.918 177.396H267.441C273.386 160.9 274.211 150.336 274.211 150.336H245.146Z" fill="#F5EEF2"/>
<path fill-rule="evenodd" clip-rule="evenodd" d="M290.47 163.363C290.47 163.368 286.139 212.46 285.236 230.461L286.019 230.513C286.468 221.54 287.777 204.768 288.972 190.249C289.57 182.989 290.139 176.29 290.559 171.406C290.77 168.964 290.942 166.977 291.062 165.599C291.182 164.222 291.25 163.456 291.25 163.454L290.47 163.363Z" fill="#D79A00"/>
<path fill-rule="evenodd" clip-rule="evenodd" d="M177.996 222.307C178.944 222.442 179.988 222.498 181.09 222.498C188.01 222.496 197.237 220.253 197.254 220.251L197.537 220.183L197.594 219.898C197.595 219.889 203.459 190.484 206.059 160.438L205.15 160.359C203.853 175.351 201.74 190.194 199.95 201.287C199.057 206.834 198.244 211.444 197.654 214.666C197.359 216.277 197.12 217.541 196.955 218.402C196.789 219.264 196.699 219.719 196.698 219.721L197.146 219.809L197.039 219.368C197.037 219.369 196.468 219.506 195.502 219.715C192.603 220.34 186.144 221.591 181.09 221.589C180.02 221.589 179.015 221.534 178.126 221.407L177.996 222.307Z" fill="#D79A00"/>
<path fill-rule="evenodd" clip-rule="evenodd" d="M229.111 176.395C229.111 176.395 176.076 223.038 177.597 223.341L174.99 254.569C220.734 231.058 229.111 176.395 229.111 176.395Z" fill="#EAAD06"/>
<path fill-rule="evenodd" clip-rule="evenodd" d="M245.046 92.207L233.119 127.327C233.119 127.327 239.434 141.523 250.658 142.271C261.884 143.018 266.094 134.799 266.094 134.799L268.198 106.405L245.046 92.207Z" fill="#F5C2A8"/>
<path fill-rule="evenodd" clip-rule="evenodd" d="M242.139 105.582C242.139 105.582 242.136 137.497 266.708 130.21L268.197 106.892L257.11 100.645L242.139 100.223V105.582Z" fill="#ED9C7B"/>
<path fill-rule="evenodd" clip-rule="evenodd" d="M249.849 70.785C244.079 75.3031 239.161 94.2166 241.931 105.002C245.693 119.643 260.931 126.573 271.223 123.599C281.515 120.622 290.223 91.6127 287.848 79.7108C285.473 67.8098 259.348 63.3465 249.849 70.785Z" fill="#F5C2A8"/>
<path fill-rule="evenodd" clip-rule="evenodd" d="M287.865 78.4231C286.078 69.3639 270.373 64.7175 259.178 66.5392L260.353 70.0505C260.353 70.0505 262.494 74.1396 262.137 78.9296C261.781 83.7195 269.633 80.8279 271.712 82.5078C273.79 84.1876 274.267 88.6272 278.191 89.1524C281.346 89.575 285.573 87.0472 288.038 86.9366C288.348 83.6669 288.318 80.7173 287.865 78.4231Z" fill="#ED9C7B"/>
<path fill-rule="evenodd" clip-rule="evenodd" d="M294.991 63.3909C295.089 65.9652 297.938 64.2289 300.296 67.5572C302.654 70.8865 300.178 74.3956 298.763 76.4495C297.348 78.5035 300.06 83.7452 296.523 85.1611C293.347 86.4318 290.982 83.9643 288.271 83.7452C285.56 83.5261 282.885 86.1935 279.193 85.9799C275.502 85.7672 274.949 81.0942 272.237 80.2562C269.526 79.4191 263.16 81.6912 262.571 76.2879C261.981 70.8846 259.859 70.0895 259.859 70.0895C259.859 70.0895 257.03 80.615 252.196 87.1703C247.362 93.7256 243.501 94.6714 243.501 94.6714C243.501 94.6714 243.154 103.342 239.835 104.179C236.516 105.016 239.11 96.037 238.874 91.7347C238.638 87.4332 235.749 76.1903 243.501 71.405C243.501 71.405 241.352 66.6206 243.501 63.3909C244.907 61.2767 248.188 61.3579 251.606 59.5632C255.025 57.7694 254.672 54.7788 259.269 53.583C263.867 52.3862 265.282 56.3344 268.584 56.3344C271.884 56.3344 271.53 52.6263 277.897 52.1479C284.262 51.6687 284.38 56.9323 286.148 58.2477C287.917 59.5632 294.637 54.1809 294.991 63.3909Z" fill="#161715"/>
<path fill-rule="evenodd" clip-rule="evenodd" d="M246.148 96.7785C246.148 96.7785 244.234 78.985 241.043 82.6916C237.852 86.399 238.491 100.485 244.234 101.226L246.148 96.7785Z" fill="#F5C2A8"/>
<path fill-rule="evenodd" clip-rule="evenodd" d="M245.146 98.7073C245.146 98.7073 243.793 85.7296 241.763 88.6135C239.733 91.4973 243.116 101.591 245.146 98.7073Z" fill="#ED9C7B"/>
<path fill-rule="evenodd" clip-rule="evenodd" d="M266.41 90.2131C265.869 90.1358 265.334 90.5173 265.215 91.0654C265.096 91.6134 265.437 92.1203 265.978 92.1977C266.518 92.275 267.053 91.8934 267.172 91.3453C267.291 90.7973 266.95 90.2904 266.41 90.2131Z" fill="#161715"/>
<path fill-rule="evenodd" clip-rule="evenodd" d="M283.446 94.2209C282.906 94.1436 282.371 94.5252 282.252 95.0732C282.133 95.6213 282.474 96.1282 283.015 96.2055C283.555 96.2828 284.09 95.9012 284.209 95.3532C284.328 94.8051 283.986 94.2982 283.446 94.2209Z" fill="#161715"/>
<path fill-rule="evenodd" clip-rule="evenodd" d="M277.155 93.2604C277.155 93.263 277.215 94.3334 277.274 95.8776C277.335 97.4227 277.394 99.4372 277.394 101.312C277.396 103.183 277.331 104.931 277.161 105.873C277.118 106.128 277.049 106.268 277.01 106.315L276.956 106.349C276.922 106.351 276.82 106.325 276.686 106.239C276.449 106.091 276.133 105.783 275.819 105.409C275.347 104.845 274.866 104.135 274.508 103.569C274.329 103.286 274.18 103.039 274.077 102.863C273.973 102.687 273.916 102.586 273.916 102.585L273.209 103.046C273.214 103.053 273.776 104.056 274.495 105.073C274.856 105.583 275.253 106.095 275.655 106.497C275.855 106.699 276.058 106.873 276.268 107.005C276.477 107.137 276.699 107.236 276.956 107.238C277.207 107.244 277.48 107.108 277.645 106.883C277.815 106.66 277.91 106.383 277.972 106.041C278.163 104.963 278.219 103.211 278.22 101.312C278.22 97.5231 277.98 93.2115 277.979 93.207L277.155 93.2604Z" fill="#ED9C7B"/>
<path fill-rule="evenodd" clip-rule="evenodd" d="M263.188 83.9541C263.188 83.9541 269.198 83.7293 272.204 85.1903C272.204 85.1903 272.684 79.3455 263.188 83.9541Z" fill="#161715"/>
<path fill-rule="evenodd" clip-rule="evenodd" d="M286.235 91.202C286.235 91.202 284.587 89.9366 283.23 89.1714C283.23 89.1714 286.331 85.954 286.235 91.202Z" fill="#161715"/>
<path fill-rule="evenodd" clip-rule="evenodd" d="M272.208 109.61C272.208 109.61 272.125 109.572 271.965 109.493C270.847 108.945 266.169 106.474 263.979 103.23L263.188 103.583C264.537 105.569 266.677 107.222 268.477 108.391C270.279 109.56 271.746 110.24 271.76 110.246L272.208 109.611" fill="#ED9C7B"/>
<path fill-rule="evenodd" clip-rule="evenodd" d="M265.13 97.233C264.543 94.1619 260.36 91.3961 259.281 94.7097C258.202 98.0233 265.949 101.52 265.13 97.233Z" fill="#ED9CA1"/>
<path fill-rule="evenodd" clip-rule="evenodd" d="M280.239 99.7218C280.531 98.2063 284.329 97.2818 284.232 99.7218C284.134 102.163 279.947 101.238 280.239 99.7218Z" fill="#ED9CA1"/>
<path fill-rule="evenodd" clip-rule="evenodd" d="M226.03 179.804C226.03 179.804 193.528 233.635 175.321 235.391C157.113 237.148 150.298 221.284 158.187 204.503C166.075 187.72 212.885 162.453 221.415 158.271C228.279 154.906 238.011 156.807 242.862 157.638C247.714 158.469 253.504 159.517 253.149 162.367C252.794 165.216 249.302 165.95 249.302 165.95C249.302 165.95 251.496 170.326 248.538 172.227C248.538 172.227 250.222 177.032 246.541 178.695C246.541 178.695 246.092 182.681 240.703 182.574C236.101 182.483 226.03 179.804 226.03 179.804Z" fill="#F5C2A8"/>
<path fill-rule="evenodd" clip-rule="evenodd" d="M378.823 234.776C378.823 234.776 388.952 232.588 394.613 233.995C400.273 235.402 415.915 248.842 414.425 251.187C412.935 253.53 390.591 249.936 390.591 249.936C390.591 249.936 384.185 254 376.439 253.53L378.823 234.776Z" fill="#ED9C7B"/>
<path fill-rule="evenodd" clip-rule="evenodd" d="M377.002 234.523C377.002 234.523 387.588 238.404 390.636 240.828C393.684 243.253 404.461 252.833 402.185 253.962C397.052 256.509 389.674 250.205 389.674 250.205C389.674 250.205 383.258 254.571 374.436 253.923L377.002 234.523Z" fill="#F5C2A8"/>
<path fill-rule="evenodd" clip-rule="evenodd" d="M273.389 184.414C273.389 184.414 273.33 184.543 273.206 184.802C271.328 188.682 254.874 220.425 213.904 232.729C210.514 233.749 208.1 234.795 206.498 235.857C205.698 236.388 205.098 236.925 204.687 237.481C204.276 238.035 204.054 238.623 204.055 239.213C204.054 239.726 204.223 240.221 204.518 240.666C205.036 241.448 205.915 242.107 207.082 242.696C210.58 244.446 216.772 245.547 224.059 245.551C231.341 245.551 239.699 244.436 247.45 241.673C255.199 238.909 262.35 234.492 267.167 227.863L266.439 227.324C261.766 233.758 254.782 238.092 247.149 240.813C239.519 243.535 231.25 244.64 224.059 244.639C218.581 244.64 213.725 243.997 210.276 242.957C208.552 242.438 207.181 241.818 206.273 241.156C205.819 240.827 205.484 240.489 205.27 240.162C205.055 239.833 204.957 239.525 204.957 239.213C204.957 238.855 205.086 238.467 205.41 238.026C205.894 237.366 206.826 236.623 208.268 235.873C209.71 235.121 211.657 234.355 214.162 233.603C236.203 226.982 251.215 214.784 260.711 204.245C270.208 193.705 274.197 184.821 274.211 184.79L273.389 184.414Z" fill="#D79A00"/>
<path fill-rule="evenodd" clip-rule="evenodd" d="M277.218 150.336H273.728C270.383 157.537 265.197 167.939 259.178 177.396H270.073C276.347 160.9 277.218 150.336 277.218 150.336Z" fill="#D8D1DF"/>
<path fill-rule="evenodd" clip-rule="evenodd" d="M294.176 153.052C300.263 163.349 309.528 208.137 312.393 222.498C316.384 219.771 320.182 216.123 323.321 211.218C323.321 211.218 306.621 164.559 296.344 150.911C286.066 137.263 265.191 134.301 265.191 134.301C265.191 134.301 286.901 140.744 294.176 153.052Z" fill="#EAAD06"/>
<path fill-rule="evenodd" clip-rule="evenodd" d="M163.965 234.317C166.781 235.345 170.132 235.761 174 235.394C192.348 233.656 225.101 180.402 225.101 180.402C225.101 180.402 193.517 220.369 163.965 234.317Z" fill="#ED9C7B"/>
<path fill-rule="evenodd" clip-rule="evenodd" d="M182.082 266.598C182.079 266.615 181.005 272.396 181.004 279.733C181.005 284.584 181.472 290.115 183.047 295.122C184.619 300.125 187.311 304.628 191.785 307.328C207.137 316.58 229.316 322.328 229.336 322.336L229.455 321.896L228.991 321.897L229.186 424.952L230.114 424.95L229.918 321.545L229.574 321.456C229.573 321.456 229.231 321.367 228.598 321.193C224.167 319.973 205.543 314.558 192.27 306.552C188.056 304.012 185.467 299.733 183.933 294.853C182.399 289.979 181.932 284.526 181.932 279.733C181.932 276.108 182.198 272.86 182.464 270.522C182.598 269.352 182.73 268.41 182.83 267.761C182.88 267.436 182.922 267.186 182.95 267.017C182.979 266.847 182.995 266.762 182.995 266.761L182.082 266.598Z" fill="#202020"/>
<path fill-rule="evenodd" clip-rule="evenodd" d="M222.094 413.724C222.118 413.729 233.748 416.929 247.563 416.931C252.304 416.931 257.305 416.553 262.183 415.536L261.994 414.721C257.195 415.722 252.255 416.096 247.563 416.096C240.726 416.096 234.414 415.302 229.814 414.507C227.515 414.11 225.643 413.714 224.348 413.416C223.699 413.267 223.196 413.144 222.856 413.057C222.514 412.97 222.339 412.923 222.339 412.922L222.094 413.724Z" fill="#202020"/>
<path fill-rule="evenodd" clip-rule="evenodd" d="M335.136 443.994L335.17 443.948C335.352 443.71 336.246 442.586 337.677 441.427C339.109 440.265 341.074 439.079 343.366 438.676L343.165 437.98C340.439 438.467 338.25 439.889 336.73 441.174C335.21 442.461 334.358 443.624 334.346 443.639L335.136 443.994Z" fill="#0F100E"/>
<path fill-rule="evenodd" clip-rule="evenodd" d="M344.17 447C344.17 447 344.194 446.932 344.243 446.801C344.414 446.344 344.886 445.162 345.601 443.914C346.314 442.663 347.282 441.352 348.376 440.636L347.892 439.984C346.425 440.956 345.323 442.643 344.552 444.088C343.787 445.534 343.369 446.743 343.365 446.755L344.17 447Z" fill="#0F100E"/>
<path fill-rule="evenodd" clip-rule="evenodd" d="M350.136 448.002C350.137 448.002 350.167 447.941 350.227 447.828C350.437 447.433 351 446.414 351.756 445.348C352.507 444.282 353.464 443.169 354.39 442.6L353.917 441.988C352.662 442.772 351.559 444.188 350.731 445.418C349.909 446.647 349.383 447.687 349.379 447.695L350.136 448.002Z" fill="#0F100E"/>
<path fill-rule="evenodd" clip-rule="evenodd" d="M354.075 450.006C354.075 450.006 354.108 449.939 354.171 449.817C354.395 449.387 354.994 448.288 355.774 447.198C356.548 446.107 357.529 445.032 358.4 444.653L358.08 443.992C357.436 444.281 356.843 444.785 356.292 445.37C354.651 447.128 353.399 449.679 353.389 449.694L354.075 450.006Z" fill="#0F100E"/>
<path fill-rule="evenodd" clip-rule="evenodd" d="M230.508 448.001L230.583 447.968C231.359 447.631 238.067 444.853 246.468 444.856C249.16 444.856 252.027 445.139 254.931 445.877L255.169 445.043C252.176 444.283 249.229 443.992 246.468 443.992C237.279 443.995 230.148 447.207 230.113 447.221L230.508 448.001Z" fill="#0F100E"/>
<path fill-rule="evenodd" clip-rule="evenodd" d="M231.5 444.995L231.563 444.972C232.22 444.729 237.927 442.721 245.125 442.722C247.891 442.722 250.877 443.017 253.886 443.818L254.167 443.12C251.052 442.292 247.969 441.988 245.125 441.988C237.227 441.99 231.15 444.319 231.115 444.331L231.5 444.995Z" fill="#0F100E"/>
<path fill-rule="evenodd" clip-rule="evenodd" d="M232.42 442.989C232.42 442.989 232.493 442.97 232.642 442.933C233.685 442.678 238.295 441.642 243.945 441.643C246.769 441.643 249.853 441.901 252.885 442.639L253.164 442.014C250.021 441.249 246.842 440.984 243.945 440.984C237.32 440.986 232.146 442.363 232.117 442.369L232.42 442.989Z" fill="#0F100E"/>
<path fill-rule="evenodd" clip-rule="evenodd" d="M233.397 439.985C233.398 439.985 233.468 439.967 233.609 439.933C234.6 439.694 238.931 438.724 243.709 438.726C246.438 438.725 249.309 439.042 251.78 439.969L252.162 439.292C249.517 438.302 246.523 437.981 243.709 437.98C238.08 437.982 233.145 439.27 233.119 439.276L233.397 439.985Z" fill="#0F100E"/>
<path fill-rule="evenodd" clip-rule="evenodd" d="M233.582 434.973L233.119 452.97L233.659 453.013L234.121 435.016" fill="#0F100E"/>
<path fill-rule="evenodd" clip-rule="evenodd" d="M248.152 435.266L252.435 451.008L253.164 450.715L248.881 434.973" fill="#0F100E"/>
<path fill-rule="evenodd" clip-rule="evenodd" d="M262.827 457.107C258.825 451.055 252.562 447 244.156 447C234.931 447 228.333 453.573 225.206 457.065H223.122C223.077 458.931 223.092 460.915 223.184 463.036H263.187C263.187 462.59 263.175 462.155 263.16 461.723C263.195 459.767 263.268 459.228 262.827 457.107Z" fill="#FFFFFE"/>
<path fill-rule="evenodd" clip-rule="evenodd" d="M329.334 439.742L358.048 451.007L358.399 450.245L329.684 438.98" fill="#0F100E"/>
<path fill-rule="evenodd" clip-rule="evenodd" d="M371.907 449.687C369.854 448.843 367.529 447.941 365.081 447C359.715 449.94 358 457.091 358 457.091H305.52C305.37 459.092 305.281 461.098 305.281 463.036H382.355C382.355 463.036 384.205 454.745 371.907 449.687Z" fill="#FFFFFE"/>
<path fill-rule="evenodd" clip-rule="evenodd" d="M305.281 462.033H381.451V461.031H305.281V462.033Z" fill="#D8D1DF"/>
<path fill-rule="evenodd" clip-rule="evenodd" d="M223.098 462.033H263.187V461.031H223.098V462.033Z" fill="#D8D1DF"/>
<path fill-rule="evenodd" clip-rule="evenodd" d="M324.461 106.883L306.317 209.881C306.079 211.234 307.119 212.475 308.492 212.475H460.152C462.294 212.475 464.127 210.934 464.499 208.822L482.643 105.824C482.882 104.471 481.842 103.23 480.469 103.23H328.809C326.666 103.23 324.833 104.771 324.461 106.883Z" fill="#F5EEF2"/>
<path fill-rule="evenodd" clip-rule="evenodd" d="M482.636 106.272C482.664 106.116 482.677 105.96 482.677 105.809L482.674 105.681C482.665 105.459 482.495 105.276 482.274 105.251L482.155 105.237L482.103 105.234H330.286C327.922 105.234 325.899 106.935 325.489 109.267L307.326 212.438C307.299 212.593 307.285 212.748 307.285 212.9L307.289 213.033C307.3 213.253 307.469 213.434 307.689 213.459L307.808 213.473C308.056 213.501 308.28 213.323 308.309 213.075C308.337 212.826 308.159 212.602 307.911 212.574L307.791 212.56L307.74 213.01L308.191 212.987L308.189 212.9C308.189 212.799 308.198 212.698 308.216 212.596L326.379 109.423C326.712 107.524 328.36 106.139 330.286 106.139H482.077L482.171 106.15L482.223 105.7L481.771 105.72L481.774 105.809C481.774 105.91 481.766 106.013 481.747 106.115C481.703 106.361 481.868 106.595 482.112 106.639C482.358 106.683 482.593 106.519 482.636 106.272Z" fill="#B7B7B7"/>
<path fill-rule="evenodd" clip-rule="evenodd" d="M374.097 169.379L366.418 213.477H386.803L394.481 169.379H374.097Z" fill="#ACADA9"/>
<path fill-rule="evenodd" clip-rule="evenodd" d="M374.097 169.379L366.418 213.477H386.803L394.481 169.379H374.097Z" fill="#B7B7B7"/>
<path fill-rule="evenodd" clip-rule="evenodd" d="M417.582 169.379H373.596L372.776 174.08L384.999 244.122C385.235 245.476 384.204 246.717 382.844 246.717H347.191C346.186 246.717 345.371 247.54 345.371 248.556H426.185C428.905 248.556 430.967 246.074 430.494 243.368L417.582 169.379Z" fill="#D8D1DF"/>
<path fill-rule="evenodd" clip-rule="evenodd" d="M420.588 169.379H374.961L388.004 244.122C388.24 245.476 387.21 246.717 385.85 246.717H350.197C349.192 246.717 348.377 247.54 348.377 248.556H429.19C431.911 248.556 433.972 246.074 433.5 243.368L420.588 169.379Z" fill="#F5EEF2"/>
<path fill-rule="evenodd" clip-rule="evenodd" d="M401.645 132.297C396.468 132.297 391.529 136.335 390.617 141.317C389.704 146.299 393.161 150.337 398.339 150.337C403.516 150.337 408.455 146.299 409.367 141.317C410.28 136.335 406.823 132.297 401.645 132.297Z" fill="#B7B7B7"/>
<path fill-rule="evenodd" clip-rule="evenodd" d="M91.8027 280.626H535.795V248.555H91.8027V280.626Z" fill="#D1D5DB"/>
<path fill-rule="evenodd" clip-rule="evenodd" d="M89.7988 280.626H154.944V248.555H89.7988V280.626Z" fill="#9CA3AF"/>
<path fill-rule="evenodd" clip-rule="evenodd" d="M182.486 281.629L178.998 463.034H188.879L195.034 281.629H182.486Z" fill="#B7B7B7"/>
<path fill-rule="evenodd" clip-rule="evenodd" d="M192.168 281.629L186.014 463.034H193.229L202.05 281.629H192.168Z" fill="#D2D2D2"/>
<path fill-rule="evenodd" clip-rule="evenodd" d="M116.95 281.629L96.8145 463.034H106.215L128.886 281.629H116.95Z" fill="#B7B7B7"/>
<path fill-rule="evenodd" clip-rule="evenodd" d="M124.498 281.629L101.826 463.034H108.69L133.898 281.629H124.498Z" fill="#D2D2D2"/>
<path fill-rule="evenodd" clip-rule="evenodd" d="M502.358 281.629L506.731 463.034H496.758L489.693 281.629H502.358Z" fill="#B7B7B7"/>
<path fill-rule="evenodd" clip-rule="evenodd" d="M508.291 281.629L509.737 463.034H503.475L499.715 281.629H508.291Z" fill="#D2D2D2"/>
<path fill-rule="evenodd" clip-rule="evenodd" d="M425.731 281.629L406.508 463.034H415.837L437.577 281.629H425.731Z" fill="#B7B7B7"/>
<path fill-rule="evenodd" clip-rule="evenodd" d="M434.261 281.629L412.52 463.034H419.331L443.589 281.629H434.261Z" fill="#B7B7B7"/>
<path fill-rule="evenodd" clip-rule="evenodd" d="M91.8027 258.576H535.795V257.574H91.8027V258.576Z" fill="#6B7280"/>
<path fill-rule="evenodd" clip-rule="evenodd" d="M0.599609 464.037H627V463.035H0.599609V464.037Z" fill="#F5EEF2"/>
</svg>
