<svg width="140" height="62" viewBox="0 0 140 62" fill="none" xmlns="http://www.w3.org/2000/svg">
<g clip-path="url(#clip0_75_16431)">
<path d="M65.8997 21.723H69.2163C69.3143 23.3932 70.3461 24.719 72.9263 24.719C75.1117 24.719 76.3157 23.7852 76.3157 22.2382C76.3157 20.8382 75.3581 20.2236 73.6375 19.8792L71.2785 19.413C68.4785 18.8726 66.3659 17.5706 66.3659 14.6726C66.3659 11.5044 68.8957 9.76001 72.8255 9.76001C76.7553 9.76001 79.2613 11.5534 79.2613 14.8686H75.9447C75.9447 13.2964 74.7155 12.462 72.7513 12.462C70.5645 12.462 69.7539 13.4938 69.7539 14.6726C69.7539 15.6302 70.3433 16.466 72.0625 16.8342L74.2731 17.2766C78.1049 18.0382 79.7261 19.5362 79.7261 22.2144C79.7261 25.7508 76.8281 27.4224 72.8969 27.4224C68.4995 27.4224 65.8955 25.3098 65.8955 21.7244L65.8997 21.723Z" fill="#F7CD29"/>
<path d="M82.0117 9.98145H88.7667C93.1893 9.98145 95.2025 12.2662 95.2025 15.6066C95.2025 18.947 93.1893 21.2066 88.7667 21.2066H85.2303V27.1762H82.0131V9.98145H82.0117ZM91.8859 15.6066C91.8859 13.8622 90.8541 12.8066 88.6435 12.8066H85.2289V18.3828H88.6435C90.8541 18.3828 91.8859 17.3272 91.8859 15.608V15.6066Z" fill="#F7CD29"/>
<path d="M100.458 9.98145H104.584L110.897 27.1762H107.482L106.254 23.6636H98.7627L97.5349 27.1762H94.1455L100.458 9.98145ZM105.42 21.2556L102.62 13.2966H102.424L99.6237 21.2556H105.421H105.42Z" fill="#F7CD29"/>
<path d="M112.666 9.98145H119.421C123.842 9.98145 125.857 12.2662 125.857 15.6066C125.857 18.0874 124.727 20.0026 122.27 20.7894L126.004 27.1762H122.787L119.372 21.2066H115.885V27.1762H112.667V9.98145H112.666ZM122.54 15.6066C122.54 13.8622 121.508 12.8066 119.298 12.8066H115.883V18.3828H119.298C121.508 18.3828 122.54 17.3272 122.54 15.608V15.6066Z" fill="#F7CD29"/>
<path d="M128.046 9.98145H139.566V12.8066H131.264V17.1788H138.83V19.7086H131.264V24.351H139.813V27.1762H128.047V9.98145H128.046Z" fill="#F7CD29"/>
<path d="M65.7167 46.5423H69.0333C69.1313 48.2125 70.1631 49.5383 72.7419 49.5383C74.9287 49.5383 76.1313 48.6045 76.1313 47.0575C76.1313 45.6575 75.1737 45.0429 73.4531 44.6985L71.0955 44.2323C68.2955 43.6919 66.1829 42.3899 66.1829 39.4919C66.1829 36.3237 68.7127 34.5793 72.6425 34.5793C76.5723 34.5793 79.0783 36.3727 79.0783 39.6879H75.7617C75.7617 38.1157 74.5339 37.2813 72.5683 37.2813C70.3815 37.2813 69.5709 38.3131 69.5709 39.4919C69.5709 40.4495 70.1603 41.2853 71.8795 41.6535L74.0901 42.0959C77.9219 42.8575 79.5431 44.3555 79.5431 47.0337C79.5431 50.5701 76.6451 52.2417 72.7139 52.2417C68.3179 52.2417 65.7139 50.1291 65.7139 46.5437L65.7167 46.5423Z" fill="#F7CD29"/>
<path d="M81.8301 34.8003H88.5851C93.0063 34.8003 95.0209 37.0851 95.0209 40.4255C95.0209 43.7659 93.0063 46.0255 88.5851 46.0255H85.0487V51.9951H81.8315V34.8003H81.8301ZM91.7043 40.4255C91.7043 38.6811 90.6725 37.6255 88.4619 37.6255H85.0473V43.2017H88.4619C90.6725 43.2017 91.7043 42.1461 91.7043 40.4269V40.4255Z" fill="#F7CD29"/>
<path d="M100.276 34.8003H104.402L110.715 51.9951H107.3L106.072 48.4825H98.5811L97.3533 51.9951H93.9639L100.276 34.8003ZM105.237 46.0745L102.437 38.1155H102.241L99.4407 46.0745H105.238H105.237Z" fill="#F7CD29"/>
<path d="M111.132 43.3979C111.132 37.7965 114.276 34.5793 119.14 34.5793C122.825 34.5793 125.772 36.4455 126.165 40.4999H123.021C122.505 38.3383 120.982 37.3807 119.066 37.3807C115.946 37.3807 114.423 39.8363 114.423 43.3993C114.423 46.9623 115.897 49.4417 119.066 49.4417C120.981 49.4417 122.504 48.4841 123.021 46.2735H126.165C125.772 50.3755 122.825 52.2431 119.116 52.2431C114.278 52.2431 111.133 49.0259 111.133 43.4007L111.132 43.3979Z" fill="#F7CD29"/>
<path d="M128.227 34.8003H139.747V37.6255H131.445V41.9977H139.011V44.5275H131.445V49.1699H139.994V51.9951H128.228V34.8003H128.227Z" fill="#F7CD29"/>
<path d="M56.567 14.0117V47.9841L52.2186 50.0561V20.2151L32.634 29.5573V59.3941L28.2856 61.4661L15.2628 55.2585L13.0186 54.1875L0 47.9841V14.0117L14.1428 7.27354L28.2856 0.533936L40.4208 6.31734L12.4138 19.6663V48.7177L15.8676 50.3613V21.8433L44.4318 8.22834L56.567 14.0117Z" fill="#F7CD29"/>
<path d="M56.567 14.0117V47.9841L52.2186 50.0561V20.2151L32.634 29.5573V59.3941L28.2856 61.4661L15.2628 55.2585L13.0186 54.1875L0 47.9841V14.0117L14.1428 7.27354L28.2856 0.533936L40.4208 6.31734L12.4138 19.6663V48.7177L15.8676 50.3613V21.8433L44.4318 8.22834L56.567 14.0117Z" fill="#F7CD29"/>
<path d="M48.7906 25.647V50.056L36.0576 43.9898V31.7174L48.7906 25.647Z" fill="#C9A302"/>
</g>
<defs>
<clipPath id="clip0_75_16431">
<rect width="140" height="60.9322" fill="white" transform="translate(0 0.533936)"/>
</clipPath>
</defs>
</svg>
